<svg width="40" height="40" viewBox="0 0 40 40" fill="none" xmlns="http://www.w3.org/2000/svg">
<path d="M17.8125 9.29688C18.244 9.29688 18.5938 8.94703 18.5938 8.51562V6.01562C18.5938 3.86172 16.8414 2.10938 14.6875 2.10938H3.90625C1.75234 2.10938 0 3.86172 0 6.01562V15.3897C0 17.5436 1.75234 19.2959 3.90625 19.2959H8.96031C8.7825 25.1323 6.56805 28.1664 2.2057 28.5633C1.80328 28.5999 1.49523 28.9373 1.49523 29.3413V37.1094C1.49523 37.3242 1.58367 37.5295 1.73977 37.6771C1.88523 37.8145 2.07734 37.8906 2.27641 37.8906C2.29102 37.8906 2.3057 37.8902 2.32031 37.8894C7.70375 37.5866 11.8134 35.7338 14.5351 32.3826C17.2282 29.0665 18.5938 24.221 18.5938 17.9806V15.1823C18.5938 14.7509 18.244 14.401 17.8125 14.401C17.381 14.401 17.0312 14.7509 17.0312 15.1823V17.9806C17.0312 29.4372 12.4582 35.4284 3.05781 36.2695V30.0323C5.43367 29.6627 7.27141 28.5568 8.52711 26.7384C9.85906 24.8095 10.5345 22.0427 10.5345 18.5147C10.5345 18.0833 10.1847 17.7334 9.7532 17.7334H3.90625C2.61391 17.7334 1.5625 16.682 1.5625 15.3897V6.01562C1.5625 4.72328 2.61391 3.67188 3.90625 3.67188H14.6875C15.9798 3.67188 17.0312 4.72328 17.0312 6.01562V8.51562C17.0312 8.94703 17.381 9.29688 17.8125 9.29688Z" fill="url(#paint0_linear_1_2)"/>
<path d="M36.0938 2.10938H25.3125C23.1586 2.10938 21.4062 3.86172 21.4062 6.01562V15.3897C21.4062 17.5436 23.1586 19.2959 25.3125 19.2959H30.3666C30.1887 25.1323 27.9743 28.1664 23.612 28.5633C23.2096 28.5999 22.9015 28.9373 22.9015 29.3413V37.1094C22.9015 37.3242 22.9899 37.5295 23.146 37.6771C23.2915 37.8146 23.4836 37.8906 23.6827 37.8906C23.6973 37.8906 23.712 37.8902 23.7266 37.8894C29.11 37.5866 33.2196 35.7338 35.9413 32.3826C38.6345 29.0666 40 24.221 40 17.9806V6.01562C40 3.86172 38.2477 2.10938 36.0938 2.10938ZM38.4375 17.9806C38.4375 29.4372 33.8645 35.4284 24.464 36.2695V30.0323C26.8399 29.6627 28.6777 28.5568 29.9333 26.7384C31.2652 24.8095 31.9406 22.0427 31.9406 18.5147C31.9406 18.0833 31.5909 17.7334 31.1594 17.7334H25.3125C24.0202 17.7334 22.9688 16.682 22.9688 15.3897V6.01562C22.9688 4.72328 24.0202 3.67188 25.3125 3.67188H34.6875V9.45578C34.6875 9.88719 35.0373 10.237 35.4688 10.237C35.9002 10.237 36.25 9.88719 36.25 9.45578V3.67766C37.4697 3.75844 38.4375 4.77586 38.4375 6.01562V17.9806Z" fill="url(#paint1_linear_1_2)"/>
<path d="M35.4688 11.3868C35.0373 11.3868 34.6875 11.7405 34.6875 12.1719C34.6875 12.6033 35.0373 12.9531 35.4688 12.9531C35.9002 12.9531 36.25 12.6033 36.25 12.1719V12.1642C36.25 11.7327 35.9002 11.3868 35.4688 11.3868Z" fill="url(#paint2_linear_1_2)"/>
<path d="M17.8125 11.0677C17.381 11.0677 17.0312 11.4175 17.0312 11.8489V11.8652C17.0312 12.2966 17.381 12.6465 17.8125 12.6465C18.244 12.6465 18.5938 12.2966 18.5938 11.8652V11.8489C18.5938 11.4175 18.244 11.0677 17.8125 11.0677Z" fill="url(#paint3_linear_1_2)"/>
<defs>
<linearGradient id="paint0_linear_1_2" x1="9.29688" y1="2.10937" x2="9.29688" y2="37.8906" gradientUnits="userSpaceOnUse">
<stop stop-color="#039BEE"/>
<stop offset="1" stop-color="#1E1740"/>
</linearGradient>
<linearGradient id="paint1_linear_1_2" x1="30.7031" y1="2.10937" x2="30.7031" y2="37.8906" gradientUnits="userSpaceOnUse">
<stop stop-color="#039BEE"/>
<stop offset="1" stop-color="#1E1740"/>
</linearGradient>
<linearGradient id="paint2_linear_1_2" x1="35.4688" y1="11.3868" x2="35.4688" y2="12.9531" gradientUnits="userSpaceOnUse">
<stop stop-color="#039BEE"/>
<stop offset="1" stop-color="#1E1740"/>
</linearGradient>
<linearGradient id="paint3_linear_1_2" x1="17.8125" y1="11.0677" x2="17.8125" y2="12.6465" gradientUnits="userSpaceOnUse">
<stop stop-color="#039BEE"/>
<stop offset="1" stop-color="#1E1740"/>
</linearGradient>
</defs>
</svg>
