<svg width="16" height="16" viewBox="0 0 16 16" fill="none" xmlns="http://www.w3.org/2000/svg">
<path fill-rule="evenodd" clip-rule="evenodd" d="M8.12571 6.71539L7.09813 6.20545L3.76344 4.55058L7.63519 5.54L8.22875 4.8044H10.8596L9.32755 7.31184L8.12571 6.71539ZM8.07202 10.3503L8.88094 9.85767L9.55984 12.045H8.07202H5.28869L8.07202 10.3503ZM11.8133 4.8044L10.9197 8.10171L14.5688 9.91243L10.6059 9.66565L10.7264 12.045H13.7456C16.5789 12.045 16.7589 7.98311 14.1874 7.78028L13.3178 7.71161C15.1758 7.71161 15.7236 4.8044 13.1387 4.8044H12.5731V2L11.8133 4.8044ZM8.07202 8.50671L6.60701 6.81394L0 15L8.07202 8.50671Z" fill="#019A48"/>
</svg>
