<svg width="206" height="87" viewBox="0 0 206 87" fill="none" xmlns="http://www.w3.org/2000/svg">
<path fill-rule="evenodd" clip-rule="evenodd" d="M51.9556 31.7008L45.3853 28.3115L24.0633 17.3121L48.8192 23.8885L52.6144 18.9992H69.4361L59.6401 35.6652L51.9556 31.7008ZM51.6123 55.861L56.7845 52.5865L61.1254 67.1248H51.6123H33.8158L51.6123 55.861ZM75.5337 18.9992L69.8202 40.9152L93.1523 52.9504L67.8138 51.3101L68.5841 67.1248H87.8888C106.005 67.1248 107.156 40.1269 90.7139 38.7788L85.1539 38.3223C97.0335 38.3223 100.537 18.9992 84.0087 18.9992H80.3919V0.359369L75.5337 18.9992ZM51.6123 43.6071L42.2451 32.3559L0 86.7656L51.6123 43.6071Z" fill="#019A48"/>
<path d="M119.503 34.8387C119.503 34.3861 119.415 34.0368 119.24 33.7914C119.065 33.5461 118.768 33.3627 118.348 33.2414C118.062 33.1587 117.667 33.1141 117.164 33.1076C116.662 33.1016 116.137 33.0983 115.59 33.0983H114.788V36.646H115.055C116.086 36.646 116.824 36.6427 117.269 36.6368C117.715 36.6302 118.125 36.5475 118.5 36.3881C118.882 36.2287 119.145 36.0165 119.288 35.7521C119.431 35.4872 119.503 35.1831 119.503 34.8387ZM118.613 29.0436C118.613 28.8075 118.554 28.5714 118.436 28.3358C118.318 28.0997 118.109 27.9245 117.81 27.8097C117.542 27.708 117.209 27.652 116.811 27.6422C116.412 27.6329 115.853 27.628 115.132 27.628H114.788V30.6404H115.362C115.942 30.6404 116.436 30.6311 116.844 30.6115C117.252 30.5925 117.574 30.5288 117.81 30.4206C118.141 30.2737 118.358 30.0844 118.46 29.8515C118.562 29.6187 118.613 29.3494 118.613 29.0436ZM123.318 34.8958C123.318 35.5846 123.18 36.1999 122.902 36.7417C122.625 37.2836 122.244 37.733 121.759 38.0904C121.198 38.511 120.581 38.8107 119.909 38.9892C119.237 39.1676 118.384 39.2568 117.351 39.2568H111.135V25.0172H116.662C117.81 25.0172 118.65 25.0558 119.182 25.132C119.715 25.2087 120.242 25.3773 120.765 25.639C121.307 25.9132 121.71 26.2815 121.975 26.7434C122.239 27.2059 122.371 27.733 122.371 28.326C122.371 29.0148 122.19 29.6219 121.826 30.148C121.463 30.6741 120.95 31.0838 120.287 31.377V31.4532C121.217 31.6381 121.956 32.0206 122.501 32.6011C123.046 33.181 123.318 33.9459 123.318 34.8958Z" fill="#FAE100"/>
<path d="M136.352 39.2568H126.053V25.0172H136.352V27.7717H129.706V30.2291H135.874V32.9835H129.706V36.5029H136.352V39.2568Z" fill="#FAE100"/>
<path d="M150.573 27.7717H146.126V39.2568H142.454V27.7717H138.007V25.0177H150.573V27.7717Z" fill="#FAE100"/>
<path d="M163.921 27.7717H159.474V39.2568H155.801V27.7717H151.354V25.0177H163.921V27.7717Z" fill="#FAE100"/>
<path d="M173.829 39.2568H165.49V36.732H167.824V27.5421H165.49V25.0172H173.829V27.5421H171.496V36.732H173.829V39.2568Z" fill="#FAE100"/>
<path d="M189.771 39.2568H186.232L180.189 29.4832V39.2568H176.822V25.0172H181.212L186.405 33.1745V25.0172H189.771V39.2568Z" fill="#FAE100"/>
<path d="M206 38.4434C205.362 38.6921 204.518 38.9391 203.466 39.1844C202.414 39.4298 201.365 39.5527 200.32 39.5527C197.897 39.5527 196 38.8944 194.63 37.5779C193.259 36.2613 192.573 34.4426 192.573 32.1223C192.573 29.9097 193.265 28.1263 194.649 26.7717C196.032 25.417 197.961 24.7397 200.435 24.7397C201.371 24.7397 202.264 24.824 203.112 24.9927C203.96 25.1618 204.903 25.4981 205.943 26.0018V29.3395H205.532C205.353 29.2057 205.092 29.0158 204.747 28.7704C204.403 28.5251 204.071 28.3162 203.753 28.1437C203.383 27.9397 202.951 27.7645 202.457 27.6182C201.963 27.4713 201.438 27.3978 200.884 27.3978C200.233 27.3978 199.644 27.4936 199.115 27.6851C198.585 27.8761 198.11 28.1693 197.69 28.5648C197.288 28.9473 196.971 29.4331 196.738 30.0228C196.506 30.6126 196.389 31.2932 196.389 32.0646C196.389 33.6396 196.807 34.8446 197.642 35.6797C198.477 36.5148 199.71 36.9326 201.343 36.9326C201.483 36.9326 201.637 36.9294 201.807 36.9229C201.976 36.9163 202.13 36.9071 202.271 36.894V34.102H199.43V31.4145H206V38.4434Z" fill="#FAE100"/>
<path d="M122.536 54.3689C122.536 55.7714 121.942 56.9112 120.753 57.7876C119.564 58.6646 117.949 59.1025 115.909 59.1025C114.729 59.1025 113.702 58.9992 112.825 58.7919C111.948 58.5846 111.127 58.3218 110.362 58.003V54.5887H110.764C111.523 55.1947 112.372 55.6599 113.313 55.9852C114.253 56.31 115.157 56.4727 116.024 56.4727C116.247 56.4727 116.54 56.4536 116.903 56.4155C117.267 56.3769 117.563 56.3133 117.793 56.224C118.073 56.1092 118.305 55.9662 118.486 55.7937C118.668 55.6218 118.759 55.3666 118.759 55.0288C118.759 54.7165 118.626 54.4472 118.362 54.2209C118.097 53.9946 117.71 53.8205 117.2 53.6997C116.664 53.5719 116.099 53.4522 115.502 53.3406C114.907 53.2291 114.347 53.0877 113.824 52.9152C112.626 52.5262 111.763 51.999 111.237 51.3326C110.712 50.6661 110.448 49.8392 110.448 48.8507C110.448 47.5249 111.043 46.4428 112.232 45.6044C113.421 44.7661 114.95 44.3471 116.817 44.3471C117.755 44.3471 118.681 44.438 119.596 44.6197C120.51 44.8014 121.302 45.0294 121.972 45.303V48.583H121.58C121.006 48.1239 120.304 47.7398 119.471 47.4308C118.639 47.1217 117.79 46.9672 116.923 46.9672C116.617 46.9672 116.312 46.9879 116.009 47.0293C115.706 47.0706 115.415 47.1489 115.135 47.2637C114.885 47.3595 114.672 47.5042 114.494 47.6984C114.315 47.8932 114.226 48.1146 114.226 48.3632C114.226 48.7392 114.369 49.028 114.656 49.2288C114.943 49.4295 115.485 49.6129 116.282 49.7783C116.805 49.8871 117.307 49.9921 117.788 50.0944C118.269 50.1961 118.787 50.3365 119.342 50.5149C120.432 50.8718 121.237 51.3582 121.757 51.9735C122.276 52.5888 122.536 53.3869 122.536 54.3689Z" fill="#231F20"/>
<path d="M136.191 47.3566H131.744V58.8418H128.072V47.3566H123.625V44.6027H136.191V47.3566Z" fill="#231F20"/>
<path d="M145.889 53.3525L144.138 48.251L142.386 53.3525H145.889ZM151.557 58.8418H147.764L146.772 55.9633H141.503L140.511 58.8418H136.811L142.07 44.6027H146.297L151.557 58.8418Z" fill="#231F20"/>
<path d="M161.591 48.9632C161.591 48.6063 161.517 48.3 161.371 48.0454C161.224 47.7902 160.972 47.5895 160.615 47.4426C160.367 47.3408 160.077 47.2788 159.745 47.2565C159.414 47.2342 159.028 47.2228 158.588 47.2228H157.259V51.0577H158.387C158.973 51.0577 159.465 51.0289 159.86 50.9712C160.255 50.9141 160.587 50.7835 160.854 50.5795C161.109 50.3815 161.296 50.1633 161.414 49.9245C161.532 49.6851 161.591 49.3647 161.591 48.9632ZM167.319 58.8418H162.834L158.96 53.6207H157.259V58.8418H153.605V44.6027H159.765C160.606 44.6027 161.33 44.6506 161.935 44.7463C162.541 44.8415 163.108 45.0488 163.638 45.3676C164.173 45.6864 164.598 46.0993 164.914 46.6058C165.229 47.1129 165.388 47.7489 165.388 48.5138C165.388 49.5654 165.143 50.4234 164.656 51.086C164.168 51.7492 163.472 52.3008 162.566 52.7404L167.319 58.8418Z" fill="#231F20"/>
<path d="M180.325 54.3689C180.325 55.7714 179.731 56.9112 178.542 57.7876C177.353 58.6646 175.738 59.1025 173.698 59.1025C172.518 59.1025 171.491 58.9992 170.614 58.7919C169.737 58.5846 168.916 58.3218 168.151 58.003V54.5887H168.553C169.312 55.1947 170.161 55.6599 171.102 55.9852C172.042 56.31 172.946 56.4727 173.813 56.4727C174.036 56.4727 174.329 56.4536 174.692 56.4155C175.056 56.3769 175.352 56.3133 175.582 56.224C175.863 56.1092 176.094 55.9662 176.275 55.7937C176.457 55.6218 176.548 55.3666 176.548 55.0288C176.548 54.7165 176.415 54.4472 176.151 54.2209C175.886 53.9946 175.499 53.8205 174.989 53.6997C174.454 53.5719 173.888 53.4522 173.291 53.3406C172.696 53.2291 172.136 53.0877 171.613 52.9152C170.415 52.5262 169.552 51.999 169.026 51.3326C168.501 50.6661 168.237 49.8392 168.237 48.8507C168.237 47.5249 168.832 46.4428 170.021 45.6044C171.21 44.7661 172.739 44.3471 174.606 44.3471C175.544 44.3471 176.47 44.438 177.385 44.6197C178.299 44.8014 179.091 45.0294 179.761 45.303V48.583H179.369C178.795 48.1239 178.093 47.7398 177.26 47.4308C176.428 47.1217 175.579 46.9672 174.712 46.9672C174.406 46.9672 174.102 46.9879 173.798 47.0293C173.495 47.0706 173.204 47.1489 172.924 47.2637C172.674 47.3595 172.461 47.5042 172.283 47.6984C172.104 47.8932 172.015 48.1146 172.015 48.3632C172.015 48.7392 172.158 49.028 172.445 49.2288C172.732 49.4295 173.274 49.6129 174.071 49.7783C174.594 49.8871 175.096 49.9921 175.577 50.0944C176.058 50.1961 176.576 50.3365 177.131 50.5149C178.222 50.8718 179.026 51.3582 179.546 51.9735C180.065 52.5888 180.325 53.3869 180.325 54.3689Z" fill="#231F20"/>
</svg>
