<svg width="140" height="59" viewBox="0 0 140 59" fill="none" xmlns="http://www.w3.org/2000/svg">
<path fill-rule="evenodd" clip-rule="evenodd" d="M35.3095 21.3002L30.8442 18.9967L16.3536 11.5215L33.178 15.9908L35.7572 12.668H47.1893L40.5319 23.9944L35.3095 21.3002ZM35.0762 37.7196L38.5912 35.4942L41.5413 45.3746H35.0762H22.9815L35.0762 37.7196ZM51.3333 12.668L47.4504 27.5623L63.3071 35.7416L46.0868 34.6268L46.6103 45.3746H59.7299C72.042 45.3746 72.824 27.0266 61.65 26.1104L57.8713 25.8002C65.9448 25.8002 68.3255 12.668 57.093 12.668H54.635V0.000240326L51.3333 12.668ZM35.0762 29.3918L28.7101 21.7453L0 58.7227L35.0762 29.3918Z" fill="#019A48"/>
<path d="M81.2147 23.4329C81.2147 23.1253 81.1552 22.888 81.0365 22.7212C80.9171 22.5545 80.7152 22.4299 80.4297 22.3474C80.2356 22.2912 79.9672 22.2609 79.6256 22.2565C79.2839 22.2524 78.9272 22.2502 78.5556 22.2502H78.0106V24.6612H78.1921C78.8928 24.6612 79.3941 24.659 79.6969 24.6549C79.9997 24.6505 80.2785 24.5943 80.5336 24.4859C80.7928 24.3776 80.9714 24.2334 81.0686 24.0537C81.1659 23.8737 81.2147 23.667 81.2147 23.4329ZM80.6102 19.4946C80.6102 19.3341 80.5702 19.1736 80.49 19.0135C80.4098 18.8531 80.2678 18.734 80.0645 18.656C79.8822 18.5869 79.6559 18.5488 79.3853 18.5421C79.1142 18.5358 78.7342 18.5325 78.2446 18.5325H78.0106V20.5797H78.4007C78.7948 20.5797 79.1305 20.5734 79.4078 20.5601C79.6851 20.5472 79.904 20.5039 80.0645 20.4303C80.2896 20.3305 80.4368 20.2019 80.5063 20.0436C80.5754 19.8854 80.6102 19.7023 80.6102 19.4946ZM83.808 23.4718C83.808 23.9399 83.7137 24.358 83.5251 24.7263C83.3366 25.0945 83.0778 25.3999 82.7483 25.6428C82.3671 25.9286 81.9479 26.1324 81.4909 26.2536C81.0339 26.3749 80.4541 26.4355 79.7524 26.4355H75.5278V16.7582H79.2843C80.0645 16.7582 80.6353 16.7844 80.9969 16.8362C81.3589 16.8883 81.7172 17.0029 82.0725 17.1808C82.4407 17.3671 82.7151 17.6174 82.8948 17.9313C83.0744 18.2456 83.1643 18.6039 83.1643 19.0069C83.1643 19.475 83.0408 19.8876 82.7938 20.2451C82.5472 20.6026 82.1982 20.8811 81.7475 21.0803V21.1321C82.3801 21.2578 82.8818 21.5177 83.2523 21.9122C83.6228 22.3064 83.808 22.8262 83.808 23.4718Z" fill="#FAE100"/>
<path d="M92.6663 26.4355H85.6665V16.7582H92.6663V18.6301H88.1493V20.3002H92.3413V22.1722H88.1493V24.564H92.6663V26.4355Z" fill="#FAE100"/>
<path d="M102.33 18.6301H99.3079V26.4355H96.8122V18.6301H93.79V16.7585H102.33V18.6301Z" fill="#FAE100"/>
<path d="M111.403 18.6301H108.381V26.4355H105.885V18.6301H102.863V16.7585H111.403V18.6301Z" fill="#FAE100"/>
<path d="M118.137 26.4355H112.47V24.7196H114.056V18.4741H112.47V16.7582H118.137V18.4741H116.551V24.7196H118.137V26.4355Z" fill="#FAE100"/>
<path d="M128.97 26.4355H126.566L122.458 19.7933V26.4355H120.17V16.7582H123.154L126.683 22.3019V16.7582H128.97V26.4355Z" fill="#FAE100"/>
<path d="M140 25.8828C139.566 26.0518 138.992 26.2197 138.277 26.3864C137.562 26.5532 136.849 26.6367 136.139 26.6367C134.492 26.6367 133.203 26.1893 132.272 25.2946C131.34 24.3998 130.875 23.1638 130.875 21.5869C130.875 20.0832 131.345 18.8712 132.285 17.9506C133.225 17.03 134.536 16.5696 136.217 16.5696C136.854 16.5696 137.461 16.6269 138.037 16.7416C138.613 16.8566 139.254 17.085 139.961 17.4274V19.6957H139.681C139.56 19.6048 139.382 19.4757 139.148 19.309C138.914 19.1422 138.689 19.0003 138.472 18.8831C138.221 18.7444 137.928 18.6254 137.591 18.5259C137.256 18.4261 136.899 18.3762 136.523 18.3762C136.08 18.3762 135.68 18.4412 135.32 18.5714C134.96 18.7011 134.638 18.9004 134.352 19.1692C134.079 19.4292 133.863 19.7593 133.705 20.1601C133.547 20.5609 133.468 21.0234 133.468 21.5477C133.468 22.6181 133.752 23.4371 134.319 24.0046C134.887 24.5721 135.725 24.8561 136.834 24.8561C136.93 24.8561 137.035 24.8539 137.15 24.8494C137.265 24.845 137.37 24.8387 137.465 24.8298V22.9324H135.535V21.1059H140V25.8828Z" fill="#FAE100"/>
<path d="M83.275 36.7048C83.275 37.658 82.8709 38.4326 82.063 39.0282C81.2548 39.6242 80.1574 39.9219 78.7709 39.9219C77.9693 39.9219 77.2709 39.8516 76.6749 39.7108C76.0792 39.5699 75.5213 39.3913 75.0015 39.1746V36.8542H75.2743C75.7901 37.2661 76.3673 37.5822 77.0065 37.8033C77.6454 38.024 78.2599 38.1346 78.8489 38.1346C79.0005 38.1346 79.2001 38.1216 79.4468 38.0958C79.6937 38.0695 79.8952 38.0263 80.0513 37.9656C80.2421 37.8876 80.3992 37.7904 80.5227 37.6732C80.6462 37.5563 80.7079 37.3829 80.7079 37.1533C80.7079 36.9411 80.6177 36.7581 80.438 36.6043C80.2583 36.4505 79.9951 36.3321 79.6483 36.2501C79.2844 36.1632 78.8999 36.0818 78.4947 36.006C78.0898 35.9302 77.7094 35.8341 77.3541 35.7169C76.5396 35.4525 75.9535 35.0943 75.596 34.6414C75.2388 34.1884 75.0599 33.6264 75.0599 32.9546C75.0599 32.0536 75.464 31.3182 76.2722 30.7484C77.0801 30.1787 78.1191 29.894 79.3883 29.894C80.0254 29.894 80.6547 29.9557 81.2766 30.0792C81.8981 30.2027 82.4364 30.3576 82.8916 30.5436V32.7727H82.625C82.2349 32.4607 81.7576 32.1996 81.1919 31.9896C80.6266 31.7796 80.0491 31.6746 79.4601 31.6746C79.2519 31.6746 79.0452 31.6887 78.8393 31.7168C78.6333 31.7449 78.4352 31.7981 78.2448 31.8761C78.0754 31.9412 77.9305 32.0395 77.8092 32.1715C77.6879 32.3039 77.6273 32.4544 77.6273 32.6234C77.6273 32.8788 77.7245 33.0752 77.9198 33.2116C78.1146 33.348 78.4829 33.4726 79.0245 33.585C79.3798 33.659 79.7211 33.7303 80.0479 33.7998C80.3752 33.869 80.7271 33.9644 81.1043 34.0856C81.8452 34.3282 82.3921 34.6587 82.7451 35.0769C83.0982 35.4951 83.275 36.0375 83.275 36.7048Z" fill="white"/>
<path d="M92.5557 31.9397H89.5335V39.7451H87.0378V31.9397H84.0156V30.0681H92.5557V31.9397Z" fill="white"/>
<path d="M99.1481 36.0145L97.9576 32.5475L96.767 36.0145H99.1481ZM103 39.7451H100.422L99.7482 37.7889H96.167L95.4926 39.7451H92.978L96.5522 30.0681H99.4251L103 39.7451Z" fill="white"/>
<path d="M109.818 33.0315C109.818 32.789 109.768 32.5808 109.668 32.4078C109.568 32.2344 109.397 32.0979 109.155 31.9981C108.986 31.929 108.789 31.8868 108.563 31.8717C108.338 31.8565 108.076 31.8487 107.777 31.8487H106.873V34.455H107.64C108.039 34.455 108.373 34.4354 108.641 34.3962C108.91 34.3574 109.135 34.2686 109.317 34.13C109.49 33.9954 109.617 33.8471 109.697 33.6848C109.778 33.5221 109.818 33.3044 109.818 33.0315ZM113.71 39.7451H110.662L108.03 36.1968H106.873V39.7451H104.391V30.0681H108.576C109.148 30.0681 109.64 30.1006 110.052 30.1657C110.463 30.2304 110.849 30.3713 111.208 30.5879C111.572 30.8046 111.861 31.0852 112.076 31.4295C112.29 31.7741 112.398 32.2063 112.398 32.7261C112.398 33.4408 112.232 34.0239 111.901 34.4742C111.569 34.9249 111.096 35.2998 110.48 35.5986L113.71 39.7451Z" fill="white"/>
<path d="M122.55 36.7048C122.55 37.658 122.146 38.4326 121.338 39.0282C120.53 39.6242 119.432 39.9219 118.046 39.9219C117.244 39.9219 116.546 39.8516 115.95 39.7108C115.354 39.5699 114.796 39.3913 114.276 39.1746V36.8542H114.549C115.065 37.2661 115.642 37.5822 116.281 37.8033C116.92 38.024 117.535 38.1346 118.124 38.1346C118.275 38.1346 118.475 38.1216 118.722 38.0958C118.969 38.0695 119.17 38.0263 119.326 37.9656C119.517 37.8876 119.674 37.7904 119.798 37.6732C119.921 37.5563 119.983 37.3829 119.983 37.1533C119.983 36.9411 119.893 36.7581 119.713 36.6043C119.533 36.4505 119.27 36.3321 118.923 36.2501C118.559 36.1632 118.175 36.0818 117.77 36.006C117.365 35.9302 116.984 35.8341 116.629 35.7169C115.814 35.4525 115.228 35.0943 114.871 34.6414C114.514 34.1884 114.335 33.6264 114.335 32.9546C114.335 32.0536 114.739 31.3182 115.547 30.7484C116.355 30.1787 117.394 29.894 118.663 29.894C119.3 29.894 119.93 29.9557 120.551 30.0792C121.173 30.2027 121.711 30.3576 122.166 30.5436V32.7727H121.9C121.51 32.4607 121.032 32.1996 120.467 31.9896C119.901 31.7796 119.324 31.6746 118.735 31.6746C118.527 31.6746 118.32 31.6887 118.114 31.7168C117.908 31.7449 117.71 31.7981 117.52 31.8761C117.35 31.9412 117.205 32.0395 117.084 32.1715C116.963 32.3039 116.902 32.4544 116.902 32.6234C116.902 32.8788 116.999 33.0752 117.195 33.2116C117.39 33.348 117.758 33.4726 118.299 33.585C118.655 33.659 118.996 33.7303 119.323 33.7998C119.65 33.869 120.002 33.9644 120.379 34.0856C121.12 34.3282 121.667 34.6587 122.02 35.0769C122.373 35.4951 122.55 36.0375 122.55 36.7048Z" fill="white"/>
</svg>
