<svg width="40" height="40" viewBox="0 0 40 40" fill="none" xmlns="http://www.w3.org/2000/svg">
<path d="M1.17755 39.1476H38.7204C38.9244 39.1476 39.1201 39.0666 39.2643 38.9223C39.4086 38.7781 39.4896 38.5824 39.4896 38.3784V16.7564C39.4858 16.6281 39.4539 16.5022 39.3962 16.3875C39.3385 16.2728 39.2563 16.1722 39.1556 16.0927L37.116 14.3344V4.27289C37.1125 4.07117 37.03 3.87888 36.8861 3.73746C36.7422 3.59605 36.5485 3.51681 36.3468 3.51684H24.3907L21.8501 1.31904C21.3147 0.879748 20.6437 0.639648 19.9512 0.639648C19.2587 0.639648 18.5876 0.879748 18.0523 1.31904L15.5072 3.51684H3.55117C3.34942 3.51681 3.15574 3.59605 3.01185 3.73746C2.86797 3.87888 2.7854 4.07117 2.78194 4.27289V14.3564L0.764359 16.0751C0.652862 16.1499 0.56187 16.2515 0.49968 16.3705C0.43749 16.4895 0.40608 16.6221 0.408315 16.7564V38.3784C0.408315 38.5824 0.489358 38.7781 0.633617 38.9223C0.777876 39.0666 0.973533 39.1476 1.17755 39.1476V39.1476ZM12.6281 27.5124L1.95996 36.6553V18.4179L12.6281 27.5124ZM37.9336 18.396V36.7081L27.2523 27.5168L37.9336 18.396ZM25.7929 28.2993L36.6237 37.6091H3.21711L14.0655 28.2993H25.7929ZM37.5248 16.7037L37.116 17.0509V16.3784L37.5248 16.7037ZM19.0501 2.50585C19.3084 2.30696 19.6252 2.19911 19.9512 2.19911C20.2772 2.19911 20.594 2.30696 20.8523 2.50585L22.0215 3.51684H17.8808L19.0501 2.50585ZM4.3204 5.04212H35.5775V18.3652L25.7578 26.7608H14.1138L4.29403 18.3828C4.31171 18.3198 4.32059 18.2547 4.3204 18.1894V5.04212ZM2.78194 17.0949L2.34238 16.7344L2.78194 16.374V17.0949Z" fill="url(#paint0_linear_128_3112)"/>
<path d="M17.7357 22.1019C19.6789 22.636 21.7507 22.4358 23.5555 21.5393C23.7374 21.4466 23.875 21.2855 23.938 21.0913C24.0011 20.8972 23.9844 20.686 23.8918 20.5041C23.7991 20.3222 23.638 20.1846 23.4438 20.1216C23.2497 20.0585 23.0385 20.0752 22.8566 20.1678C21.4154 20.8781 19.7685 21.0526 18.2104 20.6601C13.9951 19.047 15.1335 14.559 15.1687 14.37C15.5071 13.0953 17.1731 9.86014 20.839 10.1371C24.9577 10.4579 24.9445 14.2601 24.9006 15.0206C24.8082 16.603 23.8984 17.803 23.1687 17.803H23.1423C23.0831 17.8067 23.0238 17.7976 22.9685 17.7764C22.9131 17.7552 22.863 17.7223 22.8214 17.6799C22.6469 17.3798 22.5729 17.0317 22.6104 16.6865L23.1291 12.5722C23.1291 12.5371 23.1291 12.5063 23.1291 12.4755C23.1311 12.285 23.0624 12.1006 22.9362 11.9579C22.81 11.8152 22.6354 11.7244 22.4461 11.703C22.2568 11.6817 22.0663 11.7314 21.9116 11.8424C21.7568 11.9534 21.6487 12.1179 21.6082 12.3041C21.1571 11.9398 20.6008 11.7302 20.0214 11.7063H19.9555C18.3907 11.7063 16.5841 12.9502 16.2544 15.3019C16.0903 16.1325 16.2566 16.9944 16.7179 17.7044C17.1792 18.4143 17.8991 18.9165 18.7247 19.1041C19.2033 19.1848 19.6935 19.1643 20.1636 19.044C20.6338 18.9236 21.0735 18.706 21.4544 18.4052C21.5154 18.5031 21.5845 18.5958 21.661 18.6821C21.8379 18.8857 22.0558 19.0497 22.3005 19.1634C22.5452 19.277 22.811 19.3377 23.0808 19.3415C24.7819 19.4206 26.2984 17.5085 26.439 15.1085C26.6104 12.0931 24.9841 8.91508 20.9533 8.60299C16.7511 8.27772 14.2984 11.6404 13.683 13.9788C12.4346 18.7085 15.617 21.3019 17.7357 22.1019V22.1019ZM21.094 16.3876C20.9359 16.7895 20.6468 17.1263 20.2734 17.3433C19.9 17.5603 19.4643 17.6449 19.0368 17.5832C18.5955 17.4719 18.2158 17.1914 17.9797 16.8023C17.7437 16.4133 17.6702 15.9469 17.7753 15.5041C18.0126 13.8382 19.2214 13.2316 19.9731 13.2316H20.0039C20.6852 13.2316 21.1907 14.0448 21.2039 14.0623C21.249 14.1416 21.3087 14.2117 21.3797 14.2689L21.094 16.3876Z" fill="url(#paint1_linear_128_3112)"/>
<defs>
<linearGradient id="paint0_linear_128_3112" x1="19.9489" y1="0.639648" x2="19.9489" y2="39.1476" gradientUnits="userSpaceOnUse">
<stop stop-color="#039BEE"/>
<stop offset="1" stop-color="#1E1740"/>
</linearGradient>
<linearGradient id="paint1_linear_128_3112" x1="19.9263" y1="8.58105" x2="19.9263" y2="22.3951" gradientUnits="userSpaceOnUse">
<stop stop-color="#039BEE"/>
<stop offset="1" stop-color="#1E1740"/>
</linearGradient>
</defs>
</svg>
