<svg width="40" height="40" viewBox="0 0 40 40" fill="none" xmlns="http://www.w3.org/2000/svg">
<path d="M24.6175 11.5693C24.6173 10.656 24.3464 9.7633 23.8389 9.00399C23.3314 8.24468 22.6102 7.6529 21.7664 7.30348C20.9226 6.95407 19.9941 6.86271 19.0984 7.04096C18.2027 7.21921 17.3799 7.65906 16.7341 8.3049C16.0884 8.95074 15.6487 9.77355 15.4705 10.6693C15.2924 11.5651 15.3839 12.4935 15.7334 13.3373C16.0829 14.181 16.6748 14.9022 17.4342 15.4096C18.1936 15.917 19.0864 16.1878 19.9997 16.1878C21.224 16.1863 22.3978 15.6992 23.2635 14.8334C24.1292 13.9676 24.6161 12.7937 24.6175 11.5693V11.5693ZM16.4756 11.5693C16.4757 10.8724 16.6825 10.1911 17.0698 9.61164C17.4571 9.0322 18.0075 8.58061 18.6515 8.31397C19.2954 8.04734 20.004 7.97764 20.6875 8.11369C21.3711 8.24974 21.999 8.58542 22.4918 9.0783C22.9845 9.57117 23.3201 10.1991 23.456 10.8827C23.592 11.5663 23.5221 12.2748 23.2554 12.9187C22.9887 13.5626 22.537 14.113 21.9575 14.5002C21.3779 14.8874 20.6966 15.094 19.9997 15.094C19.0652 15.0929 18.1694 14.7212 17.5087 14.0604C16.8481 13.3997 16.4765 12.5038 16.4756 11.5693V11.5693Z" fill="url(#paint0_linear_128_3116)"/>
<path d="M38.5401 37.834L34.0819 26.1465C34.0424 26.043 33.9724 25.954 33.8812 25.8912C33.7899 25.8283 33.6818 25.7947 33.571 25.7946H25.1335C25.1851 25.7106 25.2363 25.629 25.2879 25.5446C28.5344 20.1696 30.1682 15.4678 30.1447 11.5715C30.1452 8.8809 29.0768 6.3003 27.1746 4.39742C25.2723 2.49454 22.6921 1.42526 20.0015 1.4248C17.3108 1.42435 14.7302 2.49276 12.8274 4.39499C10.9245 6.29723 9.8552 8.87746 9.85475 11.5681C9.83131 15.4678 11.4651 20.1703 14.7116 25.5446C14.7632 25.63 14.8144 25.7115 14.866 25.7946H6.4285C6.31772 25.7947 6.20957 25.8283 6.11834 25.8912C6.02711 25.954 5.9571 26.043 5.91756 26.1465L1.46006 37.834C1.4283 37.9168 1.41718 38.0061 1.42765 38.0942C1.43813 38.1823 1.4699 38.2664 1.5202 38.3395C1.5705 38.4125 1.63784 38.4722 1.71638 38.5134C1.79492 38.5546 1.88231 38.576 1.971 38.5759H38.0291C38.1178 38.576 38.2052 38.5546 38.2837 38.5134C38.3623 38.4722 38.4296 38.4125 38.4799 38.3395C38.5302 38.2664 38.562 38.1823 38.5725 38.0942C38.5829 38.0061 38.5718 37.9168 38.5401 37.834V37.834ZM10.9488 11.569C10.949 10.3804 11.1833 9.20345 11.6384 8.10538C12.0935 7.00731 12.7603 6.00962 13.601 5.16928C14.4416 4.32894 15.4395 3.6624 16.5377 3.20772C17.636 2.75304 18.813 2.51913 20.0016 2.51934C21.1902 2.51954 22.3672 2.75386 23.4653 3.20892C24.5633 3.66398 25.561 4.33086 26.4014 5.17149C27.2417 6.01212 27.9082 7.01004 28.3629 8.10827C28.8176 9.20649 29.0515 10.3835 29.0513 11.5721C29.0982 19.3403 21.8357 28.9212 20.0001 31.2187C18.1644 28.9221 10.9016 19.3437 10.9488 11.569V11.569ZM19.5835 32.4375C19.6348 32.4978 19.6987 32.5463 19.7706 32.5795C19.8425 32.6128 19.9208 32.63 20.0001 32.63C20.0793 32.63 20.1576 32.6128 20.2295 32.5795C20.3014 32.5463 20.3653 32.4978 20.4166 32.4375C21.8686 30.6687 23.2147 28.8155 24.4479 26.8878H33.1938L33.8938 28.7237L16.8029 34.8021L10.711 26.8868H15.5516C16.785 28.8149 18.1313 30.6684 19.5835 32.4375V32.4375ZM16.7838 35.9687H16.7869L26.9829 32.3437L30.9376 37.4821H12.5313L16.7838 35.9687ZM6.80568 26.8868H9.33068L15.7188 35.1875L9.26787 37.4818H2.76475L6.80568 26.8868ZM32.3191 37.4821L28.0663 31.9565L34.2851 29.745L37.236 37.4821H32.3191Z" fill="url(#paint1_linear_128_3116)"/>
<defs>
<linearGradient id="paint0_linear_128_3116" x1="19.9996" y1="6.95215" x2="19.9996" y2="16.1878" gradientUnits="userSpaceOnUse">
<stop stop-color="#039BEE"/>
<stop offset="1" stop-color="#1E1740"/>
</linearGradient>
<linearGradient id="paint1_linear_128_3116" x1="20.0001" y1="1.4248" x2="20.0001" y2="38.5759" gradientUnits="userSpaceOnUse">
<stop stop-color="#039BEE"/>
<stop offset="1" stop-color="#1E1740"/>
</linearGradient>
</defs>
</svg>
