<svg width="40" height="40" viewBox="0 0 40 40" fill="none" xmlns="http://www.w3.org/2000/svg">
<g clip-path="url(#clip0_127_2479)">
<path d="M22.6197 7.48344C20.7059 5.56969 18.1615 4.51562 15.4549 4.51562C12.7484 4.51562 10.2039 5.56961 8.29006 7.48344C4.33951 11.4341 4.33951 17.8623 8.29006 21.813C10.2039 23.7268 12.7484 24.7808 15.4549 24.7808C18.1614 24.7808 20.7059 23.7268 22.6197 21.813C24.5335 19.8992 25.5874 17.3547 25.5874 14.6482C25.5874 11.9417 24.5335 9.39728 22.6197 7.48344ZM9.10608 8.29946C10.8019 6.60368 13.0566 5.66969 15.4548 5.66969C17.8531 5.66969 20.1077 6.60368 21.8035 8.29946C23.142 9.63782 24.0053 11.3245 24.3099 13.155L21.1647 16.2307C20.8668 16.0626 20.5234 15.9663 20.1577 15.9663C19.4457 15.9663 18.8173 16.3301 18.4481 16.8814L13.8252 15.4309C13.8255 15.4175 13.8262 15.4042 13.8262 15.3907C13.8262 14.2569 12.9038 13.3344 11.7699 13.3344C10.6361 13.3344 9.71358 14.2569 9.71358 15.3907C9.71358 15.7614 9.81265 16.1092 9.98499 16.4099L7.55944 18.9242C5.71897 15.5211 6.23404 11.1715 9.10608 8.29946ZM21.0601 18.0225C21.0601 18.52 20.6552 18.9249 20.1577 18.9249C19.6602 18.9249 19.2554 18.52 19.2554 18.0225C19.2554 17.525 19.6602 17.1202 20.1577 17.1202C20.6552 17.1202 21.0601 17.5249 21.0601 18.0225ZM12.6723 15.3906C12.6723 15.8881 12.2675 16.2929 11.77 16.2929C11.2724 16.2929 10.8676 15.8881 10.8676 15.3906C10.8676 14.8931 11.2724 14.4882 11.77 14.4882C12.2675 14.4883 12.6723 14.8931 12.6723 15.3906ZM21.8036 20.9971C20.1078 22.6928 17.8531 23.6268 15.4549 23.6268C13.0567 23.6268 10.8019 22.6929 9.10616 20.9971C8.76936 20.6603 8.46522 20.3029 8.19319 19.9293L10.8155 17.2111C11.1009 17.3614 11.4256 17.4469 11.77 17.4469C12.4819 17.4469 13.1104 17.0831 13.4795 16.5317L18.1024 17.9823C18.1022 17.9957 18.1014 18.009 18.1014 18.0224C18.1014 19.1563 19.0238 20.0788 20.1577 20.0788C21.2916 20.0788 22.2141 19.1563 22.2141 18.0224C22.2141 17.6731 22.1262 17.3439 21.9719 17.0555L24.4335 14.6484C24.4334 17.0466 23.4994 19.3013 21.8036 20.9971Z" fill="url(#paint0_linear_127_2479)"/>
<path d="M10.3447 8.76279L11.1018 9.63373C12.8911 8.07842 15.3999 7.59888 17.6494 8.3824L18.029 7.29263C15.3901 6.37341 12.4457 6.93677 10.3447 8.76279Z" fill="url(#paint1_linear_127_2479)"/>
<path d="M19.5105 7.99121L18.9102 8.97676C19.2155 9.16278 19.5087 9.37606 19.7813 9.61059L20.5339 8.73567C20.2138 8.46035 19.8694 8.20988 19.5105 7.99121Z" fill="url(#paint2_linear_127_2479)"/>
<path d="M16.8351 21.1424C15.5367 21.4161 14.2024 21.3009 12.976 20.8096L12.5469 21.8807C13.4768 22.2533 14.4592 22.4416 15.4489 22.4416C15.9907 22.4416 16.5346 22.3851 17.0731 22.2716L16.8351 21.1424Z" fill="url(#paint3_linear_127_2479)"/>
<path d="M29.909 23.919L29.0712 24.7568L26.9926 22.535C29.4527 18.9389 30.045 14.4399 28.7687 10.4091L30.4179 8.79634C30.708 8.95306 31.0397 9.04213 31.3919 9.04213C32.5258 9.04213 33.4483 8.11962 33.4483 6.98579C33.4483 6.65001 33.3669 6.33306 33.2235 6.05274L36.7638 2.59078V4.38016H37.9178V0.642578H34.1803V1.79656H35.9255L32.4319 5.21282C32.1265 5.03305 31.7712 4.92938 31.392 4.92938C30.2582 4.92938 29.3357 5.85189 29.3357 6.98572C29.3357 7.34853 29.4305 7.68947 29.5962 7.98572L28.3322 9.22166C27.6519 7.60134 26.654 6.08384 25.3366 4.76649C19.8875 -0.682503 11.0216 -0.682347 5.57259 4.76649C0.718595 9.62049 0.188672 17.1859 3.98235 22.632L3.01079 23.6391C2.72532 23.4888 2.40063 23.4033 2.05625 23.4033C0.922424 23.4032 0 24.3257 0 25.4596C0 26.5934 0.922424 27.5159 2.05633 27.5159C3.19024 27.5159 4.11266 26.5934 4.11266 25.4596C4.11266 25.0889 4.0136 24.7411 3.84118 24.4404L4.69001 23.5605C4.96657 23.8941 5.26017 24.2181 5.57251 24.5305C8.29705 27.255 11.8758 28.6172 15.4546 28.6172C18.2018 28.6172 20.9486 27.8134 23.3094 26.2079L25.3929 28.4351L24.5265 29.3015L34.6175 39.3572L40.0001 33.9748L29.909 23.919ZM31.392 6.08345C31.8895 6.08345 32.2944 6.48829 32.2944 6.98579C32.2944 7.48329 31.8895 7.88814 31.392 7.88814C30.8944 7.88814 30.4897 7.48329 30.4897 6.98579C30.4897 6.48829 30.8944 6.08345 31.392 6.08345ZM2.05633 26.3618C1.55883 26.3618 1.15399 25.957 1.15399 25.4595C1.15399 24.962 1.55883 24.5572 2.05633 24.5572C2.55391 24.5572 2.95868 24.962 2.95868 25.4595C2.9586 25.9571 2.55383 26.3618 2.05633 26.3618ZM6.38853 23.7146C1.38953 18.7156 1.38953 10.5817 6.38853 5.58251C8.88799 3.08297 12.1712 1.83336 15.4545 1.83336C18.7378 1.83336 22.0211 3.08313 24.5205 5.58251C29.5195 10.5815 29.5195 18.7155 24.5205 23.7146C19.5217 28.7135 11.3874 28.7135 6.38853 23.7146ZM24.2421 25.5157C24.6198 25.2098 24.9854 24.8817 25.3366 24.5305C25.676 24.1911 25.9941 23.8385 26.2911 23.4743L28.2548 25.5732L26.2094 27.6186L24.2421 25.5157ZM34.6162 37.7266L26.1601 29.3L29.9105 25.5495L38.3666 33.9761L34.6162 37.7266Z" fill="url(#paint4_linear_127_2479)"/>
<path d="M29.91 27.2246L28.2588 28.8758L29.0749 29.6918L29.91 28.8566L33.0949 32.0414L33.9108 31.2255L29.91 27.2246Z" fill="url(#paint5_linear_127_2479)"/>
<path d="M34.9 32.2133L34.084 33.0293L34.9392 33.8845L35.7552 33.0685L34.9 32.2133Z" fill="url(#paint6_linear_127_2479)"/>
<path d="M7.40594 29.209H6.25195V30.4663H7.40594V29.209Z" fill="url(#paint7_linear_127_2479)"/>
<path d="M7.40594 36.2559H6.25195V37.5131H7.40594V36.2559Z" fill="url(#paint8_linear_127_2479)"/>
<path d="M16.9098 31.6338H15.7559V32.891H16.9098V31.6338Z" fill="url(#paint9_linear_127_2479)"/>
<path d="M33.4479 21.2549H32.2939V22.5121H33.4479V21.2549Z" fill="url(#paint10_linear_127_2479)"/>
<path d="M34.7575 11.2412H33.6035V12.4985H34.7575V11.2412Z" fill="url(#paint11_linear_127_2479)"/>
<path d="M38.5817 16.543H37.4277V17.8002H38.5817V16.543Z" fill="url(#paint12_linear_127_2479)"/>
</g>
<defs>
<linearGradient id="paint0_linear_127_2479" x1="15.4573" y1="4.51562" x2="15.4573" y2="24.7808" gradientUnits="userSpaceOnUse">
<stop stop-color="#039BEE"/>
<stop offset="1" stop-color="#1E1740"/>
</linearGradient>
<linearGradient id="paint1_linear_127_2479" x1="14.1869" y1="6.8584" x2="14.1869" y2="9.63373" gradientUnits="userSpaceOnUse">
<stop stop-color="#039BEE"/>
<stop offset="1" stop-color="#1E1740"/>
</linearGradient>
<linearGradient id="paint2_linear_127_2479" x1="19.722" y1="7.99121" x2="19.722" y2="9.61059" gradientUnits="userSpaceOnUse">
<stop stop-color="#039BEE"/>
<stop offset="1" stop-color="#1E1740"/>
</linearGradient>
<linearGradient id="paint3_linear_127_2479" x1="14.81" y1="20.8096" x2="14.81" y2="22.4416" gradientUnits="userSpaceOnUse">
<stop stop-color="#039BEE"/>
<stop offset="1" stop-color="#1E1740"/>
</linearGradient>
<linearGradient id="paint4_linear_127_2479" x1="20" y1="0.642578" x2="20" y2="39.3572" gradientUnits="userSpaceOnUse">
<stop stop-color="#039BEE"/>
<stop offset="1" stop-color="#1E1740"/>
</linearGradient>
<linearGradient id="paint5_linear_127_2479" x1="31.0848" y1="27.2246" x2="31.0848" y2="32.0414" gradientUnits="userSpaceOnUse">
<stop stop-color="#039BEE"/>
<stop offset="1" stop-color="#1E1740"/>
</linearGradient>
<linearGradient id="paint6_linear_127_2479" x1="34.492" y1="32.6213" x2="35.3472" y2="33.4765" gradientUnits="userSpaceOnUse">
<stop stop-color="#039BEE"/>
<stop offset="1" stop-color="#1E1740"/>
</linearGradient>
<linearGradient id="paint7_linear_127_2479" x1="6.82895" y1="29.209" x2="6.82895" y2="30.4663" gradientUnits="userSpaceOnUse">
<stop stop-color="#039BEE"/>
<stop offset="1" stop-color="#1E1740"/>
</linearGradient>
<linearGradient id="paint8_linear_127_2479" x1="6.82895" y1="36.2559" x2="6.82895" y2="37.5131" gradientUnits="userSpaceOnUse">
<stop stop-color="#039BEE"/>
<stop offset="1" stop-color="#1E1740"/>
</linearGradient>
<linearGradient id="paint9_linear_127_2479" x1="16.3329" y1="31.6338" x2="16.3329" y2="32.891" gradientUnits="userSpaceOnUse">
<stop stop-color="#039BEE"/>
<stop offset="1" stop-color="#1E1740"/>
</linearGradient>
<linearGradient id="paint10_linear_127_2479" x1="32.8709" y1="21.2549" x2="32.8709" y2="22.5121" gradientUnits="userSpaceOnUse">
<stop stop-color="#039BEE"/>
<stop offset="1" stop-color="#1E1740"/>
</linearGradient>
<linearGradient id="paint11_linear_127_2479" x1="34.1805" y1="11.2412" x2="34.1805" y2="12.4985" gradientUnits="userSpaceOnUse">
<stop stop-color="#039BEE"/>
<stop offset="1" stop-color="#1E1740"/>
</linearGradient>
<linearGradient id="paint12_linear_127_2479" x1="38.0047" y1="16.543" x2="38.0047" y2="17.8002" gradientUnits="userSpaceOnUse">
<stop stop-color="#039BEE"/>
<stop offset="1" stop-color="#1E1740"/>
</linearGradient>
<clipPath id="clip0_127_2479">
<rect width="40" height="40" fill="white"/>
</clipPath>
</defs>
</svg>
