<svg width="60" height="60" viewBox="0 0 60 60" fill="none" xmlns="http://www.w3.org/2000/svg">
<g clip-path="url(#clip0_3_23)">
<path d="M9.21921 52.5209C9.00125 52.303 8.69901 52.1776 8.39082 52.1776C8.08145 52.1776 7.78038 52.303 7.56125 52.5209C7.34328 52.7389 7.21788 53.0411 7.21788 53.3494C7.21788 53.6575 7.34328 53.9597 7.56125 54.1777C7.78038 54.3956 8.08145 54.521 8.39082 54.521C8.69901 54.521 9.00008 54.3956 9.21921 54.1777C9.43718 53.9597 9.56129 53.6575 9.56129 53.3494C9.56129 53.0411 9.43718 52.7389 9.21921 52.5209Z" fill="white"/>
<path d="M18.7556 55.6493C18.5376 55.4314 18.2354 55.306 17.9271 55.306C17.619 55.306 17.3168 55.4314 17.0988 55.6493C16.8807 55.8673 16.7555 56.1683 16.7555 56.4778C16.7555 56.786 16.8807 57.0883 17.0988 57.3062C17.3168 57.5242 17.619 57.6496 17.9271 57.6496C18.2354 57.6496 18.5376 57.5242 18.7556 57.3062C18.9735 57.0883 19.0989 56.786 19.0989 56.4778C19.0988 56.1683 18.9734 55.8673 18.7556 55.6493Z" fill="white"/>
<path d="M59.9319 39.8047C59.7281 38.6021 59.0099 37.5548 57.9617 36.9313C56.3273 35.959 54.2474 36.2197 52.9037 37.565L44.2173 46.2604C43.3673 47.1113 42.2367 47.5799 41.034 47.5799H39.942C39.9962 46.3823 39.4604 45.2368 38.4414 44.492L29.5629 38.0035C26.5082 35.771 22.5498 35.1761 18.9755 36.4111L17.8071 36.8126C17.5049 35.5852 17.3748 34.325 17.4204 33.0524C17.4929 31.0343 17.9979 29.0984 18.9215 27.299L26.4044 12.7206H42.4586L49.8381 27.3245C50.1305 27.9029 50.3834 28.5065 50.5902 29.1187C50.7975 29.7316 51.4623 30.0607 52.0754 29.8535C52.6884 29.6464 53.0174 28.9814 52.8102 28.3684C52.568 27.6517 52.2717 26.945 51.9296 26.2678L44.4875 11.5406L48.171 4.0119C48.7178 2.89416 48.4842 1.62256 47.5755 0.772483C46.6668 -0.0775957 45.3824 -0.226307 44.3036 0.393733L42.3195 1.53397C41.8833 1.78486 41.3366 1.75803 40.9269 1.46565L39.8856 0.72303C38.5353 -0.240017 36.7056 -0.16701 35.4363 0.900685L35.1101 1.17526C34.6458 1.56573 33.9837 1.58272 33.5001 1.21662L32.8718 0.740959C31.5186 -0.283728 29.6616 -0.241775 28.3559 0.842913L27.7545 1.34248C27.3419 1.68526 26.7518 1.73599 26.2868 1.46881L24.4926 0.437677C23.4249 -0.175799 22.1064 -0.0199394 21.2114 0.825334C20.3162 1.67073 20.0853 2.97819 20.6366 4.07916L24.3749 11.5428L16.8365 26.2295C15.7548 28.3372 15.1632 30.6046 15.0783 32.9689C15.0224 34.5302 15.1925 36.0755 15.5834 37.5776L11.5891 38.9507L11.4649 38.2468C11.2907 37.259 10.7424 36.3986 9.92104 35.8232C9.09957 35.2481 8.10324 35.0275 7.11592 35.2013L0.968505 36.2854C0.33124 36.3977 -0.0943857 37.0055 0.0179972 37.6426L3.78945 59.0317C3.88963 59.6002 4.38405 60.0002 4.94187 60.0001C5.00937 60.0001 5.07792 59.9942 5.14671 59.9822L11.294 58.8982C12.2817 58.724 13.1421 58.1758 13.7175 57.3544C14.2926 56.5328 14.5134 55.5368 14.3394 54.5492L12.0009 41.287L19.7388 38.6269C22.5896 37.6417 25.7451 38.1161 28.1801 39.8957L37.0586 46.3843C37.7732 46.9066 37.602 47.6411 37.5326 47.8538C37.463 48.0665 37.1676 48.7607 36.2826 48.7607C36.0803 48.7607 35.8776 48.713 35.6964 48.6229L27.5792 44.5799C27.1146 44.3485 26.5946 44.2262 26.0756 44.2262H23.9148C23.2677 44.2262 22.7432 44.7508 22.7432 45.3979C22.7432 46.045 23.2677 46.5695 23.9148 46.5695H26.0756C26.234 46.5695 26.3927 46.6067 26.5344 46.6774L34.6515 50.7203C35.1557 50.9716 35.7197 51.104 36.2826 51.104C37.3727 51.104 38.3486 50.6501 39.0216 49.8835C39.1173 49.9087 39.2174 49.9235 39.3209 49.9235H41.0339C42.863 49.9235 44.5824 49.2107 45.8751 47.9168L54.5613 39.2215C55.1465 38.6357 56.0522 38.5222 56.7636 38.9455C57.2199 39.217 57.5325 39.673 57.6213 40.1966C57.7103 40.7201 57.5652 41.2537 57.2238 41.6603L50.1375 50.1011C47.3606 53.4089 43.2908 55.3061 38.972 55.3061H22.3466C21.6995 55.3061 21.1749 55.8305 21.1749 56.4776C21.1749 57.1249 21.6995 57.6493 22.3466 57.6493H38.9718C43.985 57.6493 48.7089 55.4473 51.9321 51.6077L59.0184 43.1669C59.8028 42.2326 60.1358 41.0072 59.9319 39.8047ZM22.7319 3.0294C22.6148 2.79537 22.7153 2.62803 22.8204 2.52889C22.9254 2.42964 23.0984 2.33881 23.3252 2.46912L25.1193 3.50026C26.4293 4.25307 28.0901 4.11022 29.2521 3.1446L29.8535 2.64502C30.3171 2.25982 30.9765 2.24482 31.4573 2.60881L32.0856 3.0846C33.4475 4.11561 35.3115 4.06779 36.6186 2.96835L36.945 2.69377C37.3958 2.31456 38.0459 2.28865 38.5253 2.63061L39.5666 3.37311C40.7198 4.19577 42.2588 4.27135 43.4874 3.56541L45.4715 2.42518C45.6971 2.29545 45.8699 2.38522 45.9747 2.48341C46.0797 2.58162 46.1808 2.74791 46.0664 2.9817L42.4479 10.3773H26.4122L22.7319 3.0294ZM12.0318 54.9559C12.1668 55.7221 11.6534 56.4551 10.8875 56.5903L5.89401 57.4709L2.52933 38.3893L7.5228 37.5088C8.28957 37.3735 9.02199 37.8871 9.15721 38.6531L12.0318 54.9559Z" fill="white"/>
<path d="M52.4474 31.9921C51.8007 32.008 51.2894 32.5469 51.3053 33.1939C51.3053 33.194 51.3053 33.1976 51.3053 33.1978C51.3213 33.8347 51.8423 34.3367 52.4757 34.3367C52.4858 34.3367 52.4958 34.3366 52.5057 34.3363C53.1527 34.3201 53.6639 33.7792 53.6478 33.1324C53.6315 32.4856 53.094 31.9744 52.4474 31.9921Z" fill="white"/>
<path d="M34.3583 27.0143C32.96 27.0143 31.8224 26.0305 31.8224 24.8212C31.8224 23.6119 32.9598 22.6282 34.3583 22.6282C35.7567 22.6282 36.894 23.6119 36.894 24.8212C36.894 25.4683 37.4186 25.9928 38.0657 25.9928C38.7128 25.9928 39.2373 25.4683 39.2373 24.8212C39.2373 22.6952 37.656 20.9069 35.5298 20.4178V19.9279C35.5298 19.2808 35.0052 18.7562 34.3581 18.7562C33.711 18.7562 33.1865 19.2808 33.1865 19.9279V20.4178C31.0602 20.9069 29.4789 22.6952 29.4789 24.8212C29.4789 27.3226 31.6677 29.3578 34.3581 29.3578C35.7564 29.3578 36.894 30.3415 36.894 31.5508C36.894 32.7601 35.7564 33.7438 34.3581 33.7438C32.9598 33.7438 31.8222 32.7601 31.8222 31.5508C31.8222 30.9037 31.2977 30.3791 30.6506 30.3791C30.0035 30.3791 29.4789 30.9037 29.4789 31.5508C29.4789 33.6767 31.0602 35.465 33.1865 35.954V36.3152C33.1865 36.9623 33.711 37.4869 34.3581 37.4869C35.0052 37.4869 35.5298 36.9623 35.5298 36.3152V35.954C37.656 35.465 39.2373 33.6767 39.2373 31.5508C39.2375 29.0492 37.0487 27.0143 34.3583 27.0143Z" fill="white"/>
</g>
<defs>
<clipPath id="clip0_3_23">
<rect width="60" height="60" fill="white"/>
</clipPath>
</defs>
</svg>
