<svg width="40" height="40" viewBox="0 0 40 40" fill="none" xmlns="http://www.w3.org/2000/svg">
<g clip-path="url(#clip0_3_28)">
<path d="M6.14922 35.014C6.00391 34.8687 5.80242 34.7851 5.59696 34.7851C5.39071 34.7851 5.19 34.8687 5.04391 35.014C4.8986 35.1593 4.815 35.3608 4.815 35.5663C4.815 35.7717 4.8986 35.9732 5.04391 36.1185C5.19 36.2638 5.39071 36.3474 5.59696 36.3474C5.80242 36.3474 6.00313 36.2638 6.14922 36.1185C6.29453 35.9732 6.37727 35.7717 6.37727 35.5663C6.37727 35.3608 6.29453 35.1593 6.14922 35.014Z" fill="url(#paint0_linear_3_28)"/>
<path d="M12.5068 37.0996C12.3615 36.9543 12.16 36.8707 11.9545 36.8707C11.7491 36.8707 11.5476 36.9543 11.4023 37.0996C11.2569 37.2449 11.1734 37.4456 11.1734 37.6519C11.1734 37.8574 11.2569 38.0589 11.4023 38.2042C11.5476 38.3495 11.7491 38.4331 11.9545 38.4331C12.16 38.4331 12.3615 38.3495 12.5068 38.2042C12.6521 38.0589 12.7357 37.8574 12.7357 37.6519C12.7356 37.4456 12.652 37.2449 12.5068 37.0996Z" fill="url(#paint1_linear_3_28)"/>
<path d="M39.9577 26.5365C39.8218 25.7348 39.343 25.0366 38.6442 24.6209C37.5546 23.9727 36.168 24.1465 35.2722 25.0434L29.4813 30.8403C28.9146 31.4076 28.1609 31.72 27.3591 31.72H26.6311C26.6672 30.9216 26.31 30.1579 25.6307 29.6614L19.7117 25.3357C17.6752 23.8474 15.0363 23.4508 12.6534 24.2741L11.8745 24.5418C11.673 23.7235 11.5863 22.8834 11.6167 22.035C11.665 20.6896 12.0017 19.399 12.6174 18.1994L17.606 8.48044H28.3088L33.2285 18.2164C33.4234 18.602 33.592 19.0044 33.7299 19.4125C33.8681 19.8211 34.3113 20.0405 34.72 19.9024C35.1287 19.7643 35.348 19.321 35.2099 18.9123C35.0484 18.4345 34.8509 17.9634 34.6228 17.5119L29.6614 7.6938L32.1171 2.67466C32.4816 1.9295 32.3259 1.08177 31.7201 0.51505C31.1143 -0.0516692 30.258 -0.15081 29.5388 0.26255L28.2161 1.02271C27.9253 1.18997 27.5608 1.17208 27.2877 0.977159L26.5935 0.482081C25.6933 -0.15995 24.4735 -0.111279 23.6273 0.600518L23.4098 0.783565C23.1003 1.04388 22.6589 1.05521 22.3365 0.811143L21.9176 0.494034C21.0155 -0.189091 19.7775 -0.161122 18.907 0.562003L18.5061 0.89505C18.231 1.12357 17.8376 1.15739 17.5276 0.979268L16.3315 0.291846C15.6197 -0.117138 14.7407 -0.0132317 14.144 0.550284C13.5472 1.11388 13.3933 1.98552 13.7608 2.7195L16.253 7.69528L11.2274 17.4864C10.5063 18.8915 10.1119 20.4031 10.0553 21.9793C10.018 23.0202 10.1314 24.0504 10.392 25.0518L7.72914 25.9672L7.64633 25.4979C7.53024 24.8394 7.16469 24.2658 6.61711 23.8822C6.06946 23.4988 5.40524 23.3517 4.74703 23.4676L0.648752 24.1903C0.223909 24.2652 -0.0598415 24.6704 0.0150804 25.0951L2.52938 39.3545C2.59617 39.7335 2.92578 40.0002 3.29766 40.0001C3.34266 40.0001 3.38836 39.9962 3.43422 39.9882L7.53242 39.2655C8.19086 39.1494 8.76446 38.7839 9.14805 38.2363C9.53149 37.6886 9.67867 37.0246 9.56266 36.3662L8.00367 27.5247L13.1623 25.7513C15.0628 25.0945 17.1665 25.4108 18.7898 26.5972L24.7088 30.9229C25.1852 31.2711 25.0711 31.7608 25.0248 31.9026C24.9784 32.0444 24.7815 32.5072 24.1915 32.5072C24.0566 32.5072 23.9215 32.4754 23.8007 32.4153L18.3892 29.72C18.0795 29.5657 17.7328 29.4842 17.3868 29.4842H15.9463C15.5149 29.4842 15.1652 29.8339 15.1652 30.2653C15.1652 30.6967 15.5149 31.0464 15.9463 31.0464H17.3868C17.4924 31.0464 17.5982 31.0712 17.6927 31.1183L23.1041 33.8136C23.4402 33.9811 23.8162 34.0694 24.1915 34.0694C24.9182 34.0694 25.5688 33.7668 26.0175 33.2557C26.0813 33.2725 26.148 33.2824 26.217 33.2824H27.359C28.5784 33.2824 29.7247 32.8072 30.5865 31.9446L36.3773 26.1477C36.7674 25.7572 37.3712 25.6815 37.8455 25.9637C38.1497 26.1447 38.3581 26.4487 38.4173 26.7978C38.4766 27.1468 38.3799 27.5025 38.1523 27.7736L33.4281 33.4008C31.5768 35.606 28.8636 36.8708 25.9844 36.8708H14.9008C14.4694 36.8708 14.1197 37.2204 14.1197 37.6518C14.1197 38.0833 14.4694 38.4329 14.9008 38.4329H25.9843C29.3264 38.4329 32.4757 36.9649 34.6245 34.4052L39.3487 28.778C39.8716 28.1551 40.0936 27.3382 39.9577 26.5365ZM15.1577 2.01966C15.0796 1.86364 15.1466 1.75208 15.2167 1.68599C15.2867 1.61982 15.402 1.55927 15.5532 1.64614L16.7493 2.33357C17.6226 2.83544 18.7298 2.74021 19.5045 2.09646L19.9054 1.76341C20.2145 1.50661 20.6541 1.49661 20.9746 1.73927L21.3935 2.05646C22.3014 2.7438 23.5441 2.71192 24.4155 1.97896L24.6331 1.79591C24.9336 1.5431 25.367 1.52583 25.6866 1.7538L26.3808 2.2488C27.1496 2.79724 28.1756 2.84763 28.9947 2.377L30.3174 1.61685C30.4678 1.53036 30.583 1.59021 30.6529 1.65567C30.7229 1.72114 30.7903 1.832 30.714 1.98786L28.3017 6.91825H17.6112L15.1577 2.01966ZM8.0243 36.6373C8.1143 37.1481 7.77203 37.6368 7.26141 37.7269L3.93242 38.314L1.6893 25.5929L5.01828 25.0059C5.52946 24.9157 6.01774 25.2581 6.10789 25.7688L8.0243 36.6373Z" fill="url(#paint2_linear_3_28)"/>
<path d="M34.968 21.3281C34.5369 21.3387 34.196 21.698 34.2066 22.1293C34.2066 22.1294 34.2066 22.1318 34.2066 22.1319C34.2173 22.5565 34.5646 22.8912 34.9869 22.8912C34.9936 22.8912 35.0003 22.8911 35.0069 22.8909C35.4382 22.8801 35.779 22.5195 35.7683 22.0883C35.7574 21.6571 35.3991 21.3163 34.968 21.3281Z" fill="url(#paint3_linear_3_28)"/>
<path d="M22.9086 18.0096C21.9764 18.0096 21.218 17.3537 21.218 16.5475C21.218 15.7413 21.9763 15.0855 22.9086 15.0855C23.8409 15.0855 24.5991 15.7413 24.5991 16.5475C24.5991 16.9789 24.9488 17.3286 25.3802 17.3286C25.8116 17.3286 26.1613 16.9789 26.1613 16.5475C26.1613 15.1302 25.1071 13.938 23.6896 13.6119V13.2853C23.6896 12.8539 23.3399 12.5042 22.9085 12.5042C22.4771 12.5042 22.1274 12.8539 22.1274 13.2853V13.6119C20.7099 13.938 19.6557 15.1302 19.6557 16.5475C19.6557 18.2151 21.1149 19.5719 22.9085 19.5719C23.8407 19.5719 24.5991 20.2277 24.5991 21.0339C24.5991 21.8401 23.8407 22.4959 22.9085 22.4959C21.9763 22.4959 21.2179 21.8401 21.2179 21.0339C21.2179 20.6025 20.8682 20.2528 20.4368 20.2528C20.0054 20.2528 19.6557 20.6025 19.6557 21.0339C19.6557 22.4512 20.7099 23.6434 22.1274 23.9694V24.2102C22.1274 24.6416 22.4771 24.9913 22.9085 24.9913C23.3399 24.9913 23.6896 24.6416 23.6896 24.2102V23.9694C25.1071 23.6434 26.1613 22.4512 26.1613 21.0339C26.1614 19.3662 24.7022 18.0096 22.9086 18.0096Z" fill="url(#paint4_linear_3_28)"/>
</g>
<defs>
<linearGradient id="paint0_linear_3_28" x1="5.59614" y1="34.7851" x2="5.59614" y2="36.3474" gradientUnits="userSpaceOnUse">
<stop stop-color="#039BEE"/>
<stop offset="1" stop-color="#1E1740"/>
</linearGradient>
<linearGradient id="paint1_linear_3_28" x1="11.9545" y1="36.8707" x2="11.9545" y2="38.4331" gradientUnits="userSpaceOnUse">
<stop stop-color="#039BEE"/>
<stop offset="1" stop-color="#1E1740"/>
</linearGradient>
<linearGradient id="paint2_linear_3_28" x1="19.9999" y1="6.10352e-05" x2="19.9999" y2="40.0001" gradientUnits="userSpaceOnUse">
<stop stop-color="#039BEE"/>
<stop offset="1" stop-color="#1E1740"/>
</linearGradient>
<linearGradient id="paint3_linear_3_28" x1="34.9875" y1="21.3278" x2="34.9875" y2="22.8912" gradientUnits="userSpaceOnUse">
<stop stop-color="#039BEE"/>
<stop offset="1" stop-color="#1E1740"/>
</linearGradient>
<linearGradient id="paint4_linear_3_28" x1="22.9085" y1="12.5042" x2="22.9085" y2="24.9913" gradientUnits="userSpaceOnUse">
<stop stop-color="#039BEE"/>
<stop offset="1" stop-color="#1E1740"/>
</linearGradient>
<clipPath id="clip0_3_28">
<rect width="40" height="40" fill="white"/>
</clipPath>
</defs>
</svg>
