<svg width="40" height="40" viewBox="0 0 40 40" fill="none" xmlns="http://www.w3.org/2000/svg">
<path d="M31.067 1.43305C31.0089 1.37501 30.94 1.32898 30.8642 1.29757C30.7884 1.26616 30.7071 1.25 30.625 1.25H11.875C11.0465 1.25093 10.2522 1.58047 9.66632 2.16632C9.08047 2.75217 8.75093 3.54648 8.75 4.375V11.982L5.83844 14.5296C5.77139 14.5883 5.71765 14.6606 5.68083 14.7417C5.64402 14.8228 5.62497 14.9109 5.62497 15C5.62497 15.0891 5.64402 15.1772 5.68083 15.2583C5.71765 15.3394 5.77139 15.4117 5.83844 15.4704L8.125 17.4711V26.399C7.54002 25.9314 7.06776 25.3381 6.74319 24.6632C6.41862 23.9882 6.25006 23.2489 6.25 22.5C6.25 22.3342 6.18415 22.1753 6.06694 22.0581C5.94973 21.9408 5.79076 21.875 5.625 21.875H1.875C1.70924 21.875 1.55027 21.9408 1.43306 22.0581C1.31585 22.1753 1.25 22.3342 1.25 22.5C1.25283 24.7164 1.99057 26.8692 3.34771 28.6215C4.70486 30.3738 6.60478 31.6265 8.75 32.1836V35.625C8.75093 36.4535 9.08047 37.2478 9.66632 37.8337C10.2522 38.4195 11.0465 38.7491 11.875 38.75H35.625C36.4535 38.7491 37.2478 38.4195 37.8337 37.8337C38.4195 37.2478 38.7491 36.4535 38.75 35.625V9.375C38.75 9.29292 38.7338 9.21165 38.7024 9.13582C38.671 9.05999 38.625 8.99109 38.567 8.93305L31.067 1.43305ZM31.25 3.38383L36.6162 8.75H33.125C32.6279 8.74944 32.1513 8.55172 31.7998 8.20021C31.4483 7.8487 31.2506 7.37211 31.25 6.875V3.38383ZM2.52211 23.125H5.03125C5.1522 24.3284 5.61972 25.4709 6.37712 26.4139C7.13452 27.3568 8.14926 28.0598 9.29826 28.4375C10.4473 28.8151 11.6812 28.8513 12.8503 28.5416C14.0195 28.2319 15.0737 27.5896 15.885 26.6927C16.6964 25.7957 17.23 24.6826 17.4213 23.4883C17.6125 22.294 17.4532 21.0699 16.9625 19.9644C16.4718 18.859 15.6709 17.9196 14.657 17.2603C13.643 16.601 12.4595 16.25 11.25 16.25C11.0842 16.25 10.9253 16.3158 10.8081 16.4331C10.6908 16.5503 10.625 16.7092 10.625 16.875V17.9977L7.19914 15L10.625 12.0023V13.125C10.625 13.2908 10.6908 13.4497 10.8081 13.5669C10.9253 13.6842 11.0842 13.75 11.25 13.75C12.9539 13.75 14.6208 14.2476 16.046 15.1816C17.4711 16.1156 18.5926 17.4454 19.2726 19.0077C19.9527 20.5701 20.1618 22.297 19.8743 23.9765C19.5867 25.656 18.8151 27.2151 17.654 28.4622C16.493 29.7094 14.993 30.5904 13.3383 30.9971C11.6836 31.4038 9.94619 31.3185 8.33926 30.7518C6.73234 30.185 5.32587 29.1613 4.2925 27.8065C3.25913 26.4517 2.64382 24.8246 2.52211 23.125V23.125ZM9.375 27.1338V18.5648L10.8384 19.8454C10.9288 19.9245 11.04 19.9758 11.1588 19.9933C11.2776 20.0109 11.3989 19.9938 11.5083 19.9442C11.6176 19.8945 11.7104 19.8145 11.7754 19.7135C11.8404 19.6126 11.875 19.4951 11.875 19.375V17.5391C12.5809 17.6275 13.2598 17.8656 13.8664 18.2374C14.4729 18.6092 14.9931 19.1062 15.3923 19.6951C15.7914 20.2841 16.0602 20.9514 16.1809 21.6525C16.3015 22.3537 16.2711 23.0725 16.0917 23.7609C15.9123 24.4494 15.5881 25.0916 15.1407 25.6448C14.6933 26.1979 14.1329 26.6492 13.4972 26.9685C12.8614 27.2877 12.1648 27.4677 11.454 27.4962C10.7431 27.5248 10.0343 27.4013 9.375 27.1341V27.1338ZM37.5 35.625C37.4994 36.1221 37.3017 36.5987 36.9502 36.9502C36.5987 37.3017 36.1221 37.4994 35.625 37.5H11.875C11.3779 37.4994 10.9013 37.3017 10.5498 36.9502C10.1983 36.5987 10.0006 36.1221 10 35.625V32.4219C11.4076 32.5987 12.8366 32.474 14.1923 32.0563C15.548 31.6385 16.7994 30.9372 17.8633 29.9989C18.9273 29.0605 19.7795 27.9066 20.3634 26.6138C20.9473 25.3209 21.2495 23.9186 21.25 22.5C21.25 17.1959 17.0988 12.8432 11.875 12.5193V10.625C11.875 10.5049 11.8404 10.3874 11.7754 10.2865C11.7104 10.1855 11.6176 10.1055 11.5083 10.0558C11.3989 10.0062 11.2776 9.98914 11.1588 10.0067C11.04 10.0242 10.9288 10.0755 10.8384 10.1546L10 10.8883V4.375C10.0006 3.8779 10.1983 3.40132 10.5498 3.04981C10.9013 2.69831 11.3779 2.50058 11.875 2.5H30V6.875C30.0009 7.70352 30.3305 8.49783 30.9163 9.08368C31.5022 9.66953 32.2965 9.99907 33.125 10H37.5V35.625Z" fill="url(#paint0_linear_127_3073)"/>
<path d="M22.5 13.125C22.5 12.9592 22.4342 12.8003 22.3169 12.6831C22.1997 12.5658 22.0408 12.5 21.875 12.5H20.625C20.4592 12.5 20.3003 12.5658 20.1831 12.6831C20.0658 12.8003 20 12.9592 20 13.125C20 13.2908 20.0658 13.4497 20.1831 13.5669C20.3003 13.6842 20.4592 13.75 20.625 13.75H21.875C22.0408 13.75 22.1997 13.6842 22.3169 13.5669C22.4342 13.4497 22.5 13.2908 22.5 13.125Z" fill="url(#paint1_linear_127_3073)"/>
<path d="M23.125 17.5H25.625C25.7908 17.5 25.9497 17.4342 26.0669 17.3169C26.1842 17.1997 26.25 17.0408 26.25 16.875C26.25 16.7092 26.1842 16.5503 26.0669 16.4331C25.9497 16.3158 25.7908 16.25 25.625 16.25H23.125C22.9592 16.25 22.8003 16.3158 22.6831 16.4331C22.5658 16.5503 22.5 16.7092 22.5 16.875C22.5 17.0408 22.5658 17.1997 22.6831 17.3169C22.8003 17.4342 22.9592 17.5 23.125 17.5Z" fill="url(#paint2_linear_127_3073)"/>
<path d="M34.375 20H24.375C24.2092 20 24.0503 20.0658 23.9331 20.1831C23.8158 20.3003 23.75 20.4592 23.75 20.625C23.75 20.7908 23.8158 20.9497 23.9331 21.0669C24.0503 21.1842 24.2092 21.25 24.375 21.25H34.375C34.5408 21.25 34.6997 21.1842 34.8169 21.0669C34.9342 20.9497 35 20.7908 35 20.625C35 20.4592 34.9342 20.3003 34.8169 20.1831C34.6997 20.0658 34.5408 20 34.375 20V20Z" fill="url(#paint3_linear_127_3073)"/>
<path d="M28.125 25C28.2908 25 28.4497 24.9342 28.5669 24.8169C28.6842 24.6997 28.75 24.5408 28.75 24.375C28.75 24.2092 28.6842 24.0503 28.5669 23.9331C28.4497 23.8158 28.2908 23.75 28.125 23.75H24.375C24.2092 23.75 24.0503 23.8158 23.9331 23.9331C23.8158 24.0503 23.75 24.2092 23.75 24.375C23.75 24.5408 23.8158 24.6997 23.9331 24.8169C24.0503 24.9342 24.2092 25 24.375 25H28.125Z" fill="url(#paint4_linear_127_3073)"/>
<path d="M34.375 16.25H28.125C27.9592 16.25 27.8003 16.3158 27.6831 16.4331C27.5658 16.5503 27.5 16.7092 27.5 16.875C27.5 17.0408 27.5658 17.1997 27.6831 17.3169C27.8003 17.4342 27.9592 17.5 28.125 17.5H34.375C34.5408 17.5 34.6997 17.4342 34.8169 17.3169C34.9342 17.1997 35 17.0408 35 16.875C35 16.7092 34.9342 16.5503 34.8169 16.4331C34.6997 16.3158 34.5408 16.25 34.375 16.25Z" fill="url(#paint5_linear_127_3073)"/>
<path d="M34.375 23.75H30.625C30.4592 23.75 30.3003 23.8158 30.1831 23.9331C30.0658 24.0503 30 24.2092 30 24.375C30 24.5408 30.0658 24.6997 30.1831 24.8169C30.3003 24.9342 30.4592 25 30.625 25H34.375C34.5408 25 34.6997 24.9342 34.8169 24.8169C34.9342 24.6997 35 24.5408 35 24.375C35 24.2092 34.9342 24.0503 34.8169 23.9331C34.6997 23.8158 34.5408 23.75 34.375 23.75Z" fill="url(#paint6_linear_127_3073)"/>
<path d="M29.375 31.25H24.375C24.2092 31.25 24.0503 31.3158 23.9331 31.4331C23.8158 31.5503 23.75 31.7092 23.75 31.875C23.75 32.0408 23.8158 32.1997 23.9331 32.3169C24.0503 32.4342 24.2092 32.5 24.375 32.5H29.375C29.5408 32.5 29.6997 32.4342 29.8169 32.3169C29.9342 32.1997 30 32.0408 30 31.875C30 31.7092 29.9342 31.5503 29.8169 31.4331C29.6997 31.3158 29.5408 31.25 29.375 31.25Z" fill="url(#paint7_linear_127_3073)"/>
<path d="M21.875 31.25H20.625C20.4592 31.25 20.3003 31.3158 20.1831 31.4331C20.0658 31.5503 20 31.7092 20 31.875C20 32.0408 20.0658 32.1997 20.1831 32.3169C20.3003 32.4342 20.4592 32.5 20.625 32.5H21.875C22.0408 32.5 22.1997 32.4342 22.3169 32.3169C22.4342 32.1997 22.5 32.0408 22.5 31.875C22.5 31.7092 22.4342 31.5503 22.3169 31.4331C22.1997 31.3158 22.0408 31.25 21.875 31.25Z" fill="url(#paint8_linear_127_3073)"/>
<path d="M19.375 8.75H14.375C14.2092 8.75 14.0503 8.81585 13.9331 8.93306C13.8158 9.05027 13.75 9.20924 13.75 9.375C13.75 9.54076 13.8158 9.69973 13.9331 9.81694C14.0503 9.93415 14.2092 10 14.375 10H19.375C19.5408 10 19.6997 9.93415 19.8169 9.81694C19.9342 9.69973 20 9.54076 20 9.375C20 9.20924 19.9342 9.05027 19.8169 8.93306C19.6997 8.81585 19.5408 8.75 19.375 8.75Z" fill="url(#paint9_linear_127_3073)"/>
<path d="M27.5 28.125C27.5 27.9592 27.4342 27.8003 27.3169 27.6831C27.1997 27.5658 27.0408 27.5 26.875 27.5H23.125C22.9592 27.5 22.8003 27.5658 22.6831 27.6831C22.5658 27.8003 22.5 27.9592 22.5 28.125C22.5 28.2908 22.5658 28.4497 22.6831 28.5669C22.8003 28.6842 22.9592 28.75 23.125 28.75H26.875C27.0408 28.75 27.1997 28.6842 27.3169 28.5669C27.4342 28.4497 27.5 28.2908 27.5 28.125Z" fill="url(#paint10_linear_127_3073)"/>
<path d="M34.375 27.5H29.375C29.2092 27.5 29.0503 27.5658 28.9331 27.6831C28.8158 27.8003 28.75 27.9592 28.75 28.125C28.75 28.2908 28.8158 28.4497 28.9331 28.5669C29.0503 28.6842 29.2092 28.75 29.375 28.75H34.375C34.5408 28.75 34.6997 28.6842 34.8169 28.5669C34.9342 28.4497 35 28.2908 35 28.125C35 27.9592 34.9342 27.8003 34.8169 27.6831C34.6997 27.5658 34.5408 27.5 34.375 27.5Z" fill="url(#paint11_linear_127_3073)"/>
<path d="M34.375 31.25H31.875C31.7092 31.25 31.5503 31.3158 31.4331 31.4331C31.3158 31.5503 31.25 31.7092 31.25 31.875C31.25 32.0408 31.3158 32.1997 31.4331 32.3169C31.5503 32.4342 31.7092 32.5 31.875 32.5H34.375C34.5408 32.5 34.6997 32.4342 34.8169 32.3169C34.9342 32.1997 35 32.0408 35 31.875C35 31.7092 34.9342 31.5503 34.8169 31.4331C34.6997 31.3158 34.5408 31.25 34.375 31.25Z" fill="url(#paint12_linear_127_3073)"/>
<path d="M23.75 13.125C23.75 13.2908 23.8158 13.4497 23.9331 13.5669C24.0503 13.6842 24.2092 13.75 24.375 13.75H34.375C34.5408 13.75 34.6997 13.6842 34.8169 13.5669C34.9342 13.4497 35 13.2908 35 13.125C35 12.9592 34.9342 12.8003 34.8169 12.6831C34.6997 12.5658 34.5408 12.5 34.375 12.5H24.375C24.2092 12.5 24.0503 12.5658 23.9331 12.6831C23.8158 12.8003 23.75 12.9592 23.75 13.125Z" fill="url(#paint13_linear_127_3073)"/>
<defs>
<linearGradient id="paint0_linear_127_3073" x1="20" y1="1.25" x2="20" y2="38.75" gradientUnits="userSpaceOnUse">
<stop stop-color="#039BEE"/>
<stop offset="1" stop-color="#1E1740"/>
</linearGradient>
<linearGradient id="paint1_linear_127_3073" x1="21.25" y1="12.5" x2="21.25" y2="13.75" gradientUnits="userSpaceOnUse">
<stop stop-color="#039BEE"/>
<stop offset="1" stop-color="#1E1740"/>
</linearGradient>
<linearGradient id="paint2_linear_127_3073" x1="24.375" y1="16.25" x2="24.375" y2="17.5" gradientUnits="userSpaceOnUse">
<stop stop-color="#039BEE"/>
<stop offset="1" stop-color="#1E1740"/>
</linearGradient>
<linearGradient id="paint3_linear_127_3073" x1="29.375" y1="20" x2="29.375" y2="21.25" gradientUnits="userSpaceOnUse">
<stop stop-color="#039BEE"/>
<stop offset="1" stop-color="#1E1740"/>
</linearGradient>
<linearGradient id="paint4_linear_127_3073" x1="26.25" y1="23.75" x2="26.25" y2="25" gradientUnits="userSpaceOnUse">
<stop stop-color="#039BEE"/>
<stop offset="1" stop-color="#1E1740"/>
</linearGradient>
<linearGradient id="paint5_linear_127_3073" x1="31.25" y1="16.25" x2="31.25" y2="17.5" gradientUnits="userSpaceOnUse">
<stop stop-color="#039BEE"/>
<stop offset="1" stop-color="#1E1740"/>
</linearGradient>
<linearGradient id="paint6_linear_127_3073" x1="32.5" y1="23.75" x2="32.5" y2="25" gradientUnits="userSpaceOnUse">
<stop stop-color="#039BEE"/>
<stop offset="1" stop-color="#1E1740"/>
</linearGradient>
<linearGradient id="paint7_linear_127_3073" x1="26.875" y1="31.25" x2="26.875" y2="32.5" gradientUnits="userSpaceOnUse">
<stop stop-color="#039BEE"/>
<stop offset="1" stop-color="#1E1740"/>
</linearGradient>
<linearGradient id="paint8_linear_127_3073" x1="21.25" y1="31.25" x2="21.25" y2="32.5" gradientUnits="userSpaceOnUse">
<stop stop-color="#039BEE"/>
<stop offset="1" stop-color="#1E1740"/>
</linearGradient>
<linearGradient id="paint9_linear_127_3073" x1="16.875" y1="8.75" x2="16.875" y2="10" gradientUnits="userSpaceOnUse">
<stop stop-color="#039BEE"/>
<stop offset="1" stop-color="#1E1740"/>
</linearGradient>
<linearGradient id="paint10_linear_127_3073" x1="25" y1="27.5" x2="25" y2="28.75" gradientUnits="userSpaceOnUse">
<stop stop-color="#039BEE"/>
<stop offset="1" stop-color="#1E1740"/>
</linearGradient>
<linearGradient id="paint11_linear_127_3073" x1="31.875" y1="27.5" x2="31.875" y2="28.75" gradientUnits="userSpaceOnUse">
<stop stop-color="#039BEE"/>
<stop offset="1" stop-color="#1E1740"/>
</linearGradient>
<linearGradient id="paint12_linear_127_3073" x1="33.125" y1="31.25" x2="33.125" y2="32.5" gradientUnits="userSpaceOnUse">
<stop stop-color="#039BEE"/>
<stop offset="1" stop-color="#1E1740"/>
</linearGradient>
<linearGradient id="paint13_linear_127_3073" x1="29.375" y1="12.5" x2="29.375" y2="13.75" gradientUnits="userSpaceOnUse">
<stop stop-color="#039BEE"/>
<stop offset="1" stop-color="#1E1740"/>
</linearGradient>
</defs>
</svg>
