<svg width="40" height="40" viewBox="0 0 40 40" fill="none" xmlns="http://www.w3.org/2000/svg">
<path d="M2.5 13.125H1.25V10.625C1.25093 9.79651 1.58047 9.00219 2.16632 8.41634C2.75217 7.83049 3.54648 7.50095 4.375 7.50002H25.625V6.25002H24.375C24.2514 6.25003 24.1305 6.21337 24.0278 6.1447C23.925 6.07602 23.8449 5.97841 23.7976 5.8642C23.7502 5.75 23.7379 5.62433 23.762 5.50308C23.7861 5.38184 23.8456 5.27048 23.933 5.18307L27.683 1.43307C27.7411 1.37503 27.81 1.32899 27.8858 1.29758C27.9616 1.26617 28.0429 1.25 28.125 1.25C28.2071 1.25 28.2884 1.26617 28.3642 1.29758C28.44 1.32899 28.5089 1.37503 28.567 1.43307L32.317 5.18307C32.4044 5.27048 32.4639 5.38184 32.488 5.50308C32.5121 5.62433 32.4998 5.75 32.4524 5.8642C32.4051 5.97841 32.325 6.07602 32.2222 6.1447C32.1195 6.21337 31.9986 6.25003 31.875 6.25002H30.625V7.50002H33.125C33.9535 7.50095 34.7478 7.83049 35.3337 8.41634C35.9195 9.00219 36.2491 9.79651 36.25 10.625V23.125H35V10.625C34.9994 10.1279 34.8017 9.65134 34.4502 9.29984C34.0987 8.94833 33.6221 8.7506 33.125 8.75002H30.625V20H29.375V5.62502C29.375 5.45926 29.4408 5.30029 29.5581 5.18308C29.6753 5.06587 29.8342 5.00002 30 5.00002H30.3662L28.125 2.75885L25.8838 5.00002H26.25C26.4158 5.00002 26.5747 5.06587 26.6919 5.18308C26.8092 5.30029 26.875 5.45926 26.875 5.62502V20.625H25.625V8.75002H4.375C3.8779 8.7506 3.40132 8.94833 3.04981 9.29984C2.69831 9.65134 2.50058 10.1279 2.5 10.625V13.125ZM4.375 32.5H14.7849L13.2849 37.5H11.875V38.75H25.625V37.5H24.2151L23.4112 34.8203L22.2138 35.1797L22.91 37.5H14.5897L16.0897 32.5H20.625V31.25H4.375C3.8779 31.2494 3.40132 31.0517 3.04981 30.7002C2.69831 30.3487 2.50058 29.8721 2.5 29.375V28.75H20V27.5H2.5V14.375H1.25V29.375C1.25093 30.2035 1.58047 30.9979 2.16632 31.5837C2.75217 32.1696 3.54648 32.4991 4.375 32.5V32.5ZM23.125 21.875V11.875H20.625V26.25H4.375V25H6.875V20C6.875 19.8343 6.94085 19.6753 7.05806 19.5581C7.17527 19.4409 7.33424 19.375 7.5 19.375H11.25C11.4158 19.375 11.5747 19.4409 11.6919 19.5581C11.8092 19.6753 11.875 19.8343 11.875 20V25H13.125V15.625C13.125 15.4593 13.1908 15.3003 13.3081 15.1831C13.4253 15.0659 13.5842 15 13.75 15H17.5C17.6658 15 17.8247 15.0659 17.9419 15.1831C18.0592 15.3003 18.125 15.4593 18.125 15.625V25H19.375V11.25C19.375 11.0843 19.4408 10.9253 19.5581 10.8081C19.6753 10.6909 19.8342 10.625 20 10.625H23.75C23.9158 10.625 24.0747 10.6909 24.1919 10.8081C24.3092 10.9253 24.375 11.0843 24.375 11.25V21.875H23.125ZM10.625 20.625H8.125V25H10.625V20.625ZM16.875 16.25H14.375V25H16.875V16.25ZM4.375 10V11.25H5.625V10H4.375ZM8.125 10H6.875V11.25H8.125V10ZM9.375 10V11.25H10.625V10H9.375ZM38.2005 35.5495C38.551 35.9018 38.7484 36.3781 38.75 36.875C38.7502 37.1213 38.7019 37.3652 38.6077 37.5928C38.5136 37.8204 38.3755 38.0272 38.2013 38.2014C38.0272 38.3755 37.8204 38.5136 37.5928 38.6078C37.3652 38.7019 37.1213 38.7502 36.875 38.75C36.3786 38.7457 35.9033 38.5487 35.5495 38.2006L32.5578 35.209C30.9842 36.1373 29.126 36.4597 27.3317 36.1159C25.5373 35.7721 23.9299 34.7855 22.8109 33.3413C21.6919 31.8971 21.1382 30.0943 21.2534 28.2709C21.3686 26.4475 22.1449 24.7287 23.4368 23.4369C24.7287 22.145 26.4475 21.3686 28.2709 21.2534C30.0942 21.1382 31.897 21.692 33.3413 22.811C34.7855 23.93 35.772 25.5373 36.1159 27.3317C36.4597 29.126 36.1373 30.9842 35.209 32.5578L38.2005 35.5495ZM35 28.75C35 27.5139 34.6334 26.3055 33.9467 25.2777C33.2599 24.2499 32.2838 23.4488 31.1418 22.9758C29.9997 22.5027 28.7431 22.379 27.5307 22.6201C26.3183 22.8613 25.2047 23.4565 24.3306 24.3306C23.4565 25.2047 22.8612 26.3183 22.6201 27.5307C22.3789 28.7431 22.5027 29.9998 22.9758 31.1418C23.4488 32.2838 24.2499 33.26 25.2777 33.9467C26.3055 34.6335 27.5139 35 28.75 35C30.407 34.9981 31.9956 34.3391 33.1673 33.1674C34.339 31.9957 34.9981 30.407 35 28.75V28.75ZM37.3166 36.4335L34.4738 33.5906C34.2042 33.9088 33.9088 34.2043 33.5905 34.4739L36.4334 37.3166C36.4908 37.377 36.5598 37.4254 36.6361 37.4588C36.7125 37.4922 36.7948 37.51 36.8782 37.511C36.9616 37.5121 37.0443 37.4965 37.1215 37.4651C37.1988 37.4337 37.2689 37.3871 37.3279 37.3282C37.3868 37.2692 37.4334 37.1991 37.4648 37.1219C37.4962 37.0446 37.5118 36.9619 37.5107 36.8785C37.5096 36.7952 37.4919 36.7129 37.4585 36.6365C37.4251 36.5601 37.3767 36.4912 37.3163 36.4338L37.3166 36.4335ZM33.75 28.75C33.75 29.7389 33.4568 30.7056 32.9073 31.5279C32.3579 32.3501 31.577 32.991 30.6634 33.3694C29.7498 33.7479 28.7445 33.8469 27.7745 33.654C26.8046 33.461 25.9137 32.9848 25.2145 32.2856C24.5152 31.5863 24.039 30.6954 23.8461 29.7255C23.6531 28.7556 23.7522 27.7502 24.1306 26.8366C24.509 25.923 25.1499 25.1421 25.9721 24.5927C26.7944 24.0433 27.7611 23.75 28.75 23.75C30.0756 23.7515 31.3465 24.2788 32.2839 25.2161C33.2212 26.1535 33.7485 27.4244 33.75 28.75V28.75ZM32.5 28.75C32.5 28.0083 32.2801 27.2833 31.868 26.6666C31.456 26.05 30.8703 25.5693 30.1851 25.2855C29.4998 25.0016 28.7458 24.9274 28.0184 25.0721C27.291 25.2168 26.6228 25.5739 26.0983 26.0984C25.5739 26.6228 25.2167 27.291 25.0721 28.0184C24.9274 28.7459 25.0016 29.4999 25.2855 30.1851C25.5693 30.8703 26.0499 31.456 26.6666 31.868C27.2833 32.2801 28.0083 32.5 28.75 32.5C29.7442 32.4989 30.6974 32.1035 31.4004 31.4005C32.1035 30.6974 32.4989 29.7442 32.5 28.75ZM26.25 28.75H27.5C27.5004 28.4186 27.6322 28.1009 27.8665 27.8666C28.1009 27.6322 28.4186 27.5004 28.75 27.5V26.25C28.0872 26.2508 27.4517 26.5144 26.9831 26.9831C26.5144 27.4518 26.2507 28.0872 26.25 28.75ZM34.375 5.00002H35.625C35.6239 4.0058 35.2285 3.05261 34.5254 2.34958C33.8224 1.64656 32.8692 1.25112 31.875 1.25002V2.50002C32.5378 2.50077 33.1733 2.7644 33.6419 3.23308C34.1106 3.70176 34.3743 4.33721 34.375 5.00002Z" fill="url(#paint0_linear_127_3103)"/>
<defs>
<linearGradient id="paint0_linear_127_3103" x1="20" y1="1.25" x2="20" y2="38.75" gradientUnits="userSpaceOnUse">
<stop stop-color="#039BEE"/>
<stop offset="1" stop-color="#1E1740"/>
</linearGradient>
</defs>
</svg>
