<svg width="53" height="63" viewBox="0 0 53 63" fill="none" xmlns="http://www.w3.org/2000/svg">
<path d="M26.5 62.2386C26.4232 62.2386 26.3462 62.2315 26.2702 62.2168C18.8954 60.7984 12.1996 56.8287 7.41657 51.0385C2.63395 45.2483 0 37.9234 0 30.4132V9.13787C0 8.60653 0.345207 8.13644 0.852342 7.97784L26.0983 0.0683774C26.226 0.023742 26.3661 0.00284905 26.5 0H26.5014C26.6391 0 26.7745 0.023742 26.9023 0.0683774L52.1478 7.97784C52.6549 8.13691 53 8.60653 53 9.13787V30.4132C53 37.9234 50.3661 45.2483 45.583 51.0385C40.8005 56.8287 34.1047 60.7984 26.7299 62.2168C26.6539 62.2315 26.5769 62.2386 26.5 62.2386ZM2.4312 10.0306V30.4132C2.4312 44.6727 12.5391 56.9874 26.5 59.7841C40.4609 56.9874 50.5683 44.6727 50.5683 30.4132V10.0306L26.5 2.49007L2.4312 10.0306Z" fill="white"/>
<path d="M26.5 55.2702C26.4012 55.2702 26.3024 55.2584 26.2066 55.2348C20.7184 53.8691 15.7662 50.6552 12.2614 46.1856C8.74422 41.6993 6.80734 36.0981 6.80734 30.4132V14.1385C6.80734 13.6071 7.15255 13.1375 7.65922 12.9789L26.1362 7.19008C26.3728 7.116 26.6268 7.116 26.8634 7.19008L45.3404 12.9789C45.8471 13.1375 46.1922 13.6071 46.1922 14.1385V30.4132C46.1922 34.5686 45.1628 38.705 43.2155 42.375C42.9007 42.9682 42.165 43.1931 41.5721 42.8788C40.9789 42.5639 40.7535 41.8284 41.0678 41.2354C42.8299 37.9153 43.761 34.1731 43.761 30.4132V15.0316L26.4996 9.62366L9.23854 15.0316V30.4132C9.23854 40.9656 16.3214 50.1282 26.4996 52.8001C29.3272 52.0579 31.9546 50.802 34.3136 49.0646C34.854 48.6667 35.6152 48.782 36.0131 49.3224C36.4114 49.8628 36.2961 50.624 35.7552 51.0218C33.0577 53.0091 30.0423 54.426 26.793 55.2348C26.697 55.2584 26.5984 55.2702 26.5 55.2702Z" fill="white"/>
<path d="M24.292 40.2676C23.9805 40.2676 23.67 40.1489 23.4326 39.9114L15.2923 31.7713C14.8175 31.2968 14.8175 30.5273 15.2923 30.0524L19.4182 25.9264C19.6462 25.6985 19.9553 25.5703 20.2777 25.5703C20.6001 25.5703 20.9093 25.6985 21.1371 25.9264L24.292 29.0813L31.8625 21.5104C32.3372 21.036 33.107 21.0356 33.5819 21.5104L37.7078 25.6362C37.9356 25.8642 38.0638 26.1734 38.0638 26.4957C38.0638 26.8181 37.9356 27.1273 37.7078 27.3553L25.1515 39.9114C24.914 40.1489 24.603 40.2676 24.292 40.2676ZM17.8707 30.9117L24.292 37.3326L35.129 26.4957L32.7219 24.0893L25.1515 31.6602C24.9235 31.8881 24.6144 32.0158 24.292 32.0158C23.9696 32.0158 23.6604 31.8881 23.4326 31.6602L20.2777 28.5053L17.8707 30.9117Z" fill="white"/>
<path d="M39.0473 47.5422C38.7277 47.5422 38.4139 47.4131 38.1878 47.1861C37.9617 46.9601 37.8317 46.6461 37.8317 46.3267C37.8317 46.0071 37.9617 45.6933 38.1878 45.4672C38.4139 45.2411 38.7277 45.111 39.0473 45.111C39.3668 45.111 39.6808 45.2411 39.9067 45.4672C40.1328 45.6933 40.2629 46.0071 40.2629 46.3267C40.2629 46.6461 40.1328 46.9601 39.9067 47.1861C39.6808 47.4131 39.3668 47.5422 39.0473 47.5422Z" fill="white"/>
</svg>
