<svg width="40" height="40" viewBox="0 0 40 40" fill="none" xmlns="http://www.w3.org/2000/svg">
<g clip-path="url(#clip0_3_16)">
<path d="M20 40C19.9506 40 19.9011 39.9954 19.8523 39.986C15.1126 39.0744 10.8093 36.5231 7.73529 32.8018C4.66156 29.0805 2.96875 24.3729 2.96875 19.5462V5.8728C2.96875 5.53131 3.19061 5.22919 3.51654 5.12726L19.7418 0.0439453C19.8239 0.0152587 19.9139 0.00183105 20 0H20.0009C20.0894 0 20.1764 0.0152587 20.2585 0.0439453L36.4835 5.12726C36.8094 5.22949 37.0312 5.53131 37.0312 5.8728V19.5462C37.0312 24.3729 35.3384 29.0805 32.2644 32.8018C29.1907 36.5231 24.8874 39.0744 20.1477 39.986C20.0989 39.9954 20.0494 40 20 40V40ZM4.53125 6.44653V19.5462C4.53125 28.7106 11.0275 36.6251 20 38.4225C28.9725 36.6251 35.4684 28.7106 35.4684 19.5462V6.44653L20 1.60034L4.53125 6.44653Z" fill="url(#paint0_linear_3_16)"/>
<path d="M20 35.5215C19.9365 35.5215 19.873 35.5139 19.8114 35.4987C16.2842 34.621 13.1015 32.5555 10.849 29.6829C8.58856 26.7996 7.34375 23.1998 7.34375 19.5462V9.08661C7.34375 8.74512 7.56561 8.4433 7.89124 8.34137L19.7662 4.62097C19.9182 4.57336 20.0815 4.57336 20.2335 4.62097L32.1085 8.34137C32.4341 8.4433 32.6559 8.74512 32.6559 9.08661V19.5462C32.6559 22.2168 31.9943 24.8752 30.7428 27.2339C30.5405 27.6151 30.0677 27.7597 29.6866 27.5577C29.3054 27.3553 29.1605 26.8826 29.3625 26.5015C30.495 24.3677 31.0934 21.9626 31.0934 19.5462V9.66064L19.9997 6.185L8.90625 9.66064V19.5462C8.90625 26.3281 13.4583 32.2168 19.9997 33.934C21.817 33.457 23.5056 32.6498 25.0217 31.5332C25.369 31.2775 25.8582 31.3516 26.1139 31.6989C26.3699 32.0462 26.2958 32.5354 25.9482 32.7911C24.2145 34.0683 22.2766 34.9789 20.1883 35.4987C20.1266 35.5139 20.0632 35.5215 20 35.5215V35.5215Z" fill="url(#paint1_linear_3_16)"/>
<path d="M18.5809 25.8795C18.3807 25.8795 18.1812 25.8032 18.0286 25.6506L12.7969 20.419C12.4918 20.1141 12.4918 19.6195 12.7969 19.3143L15.4486 16.6626C15.5951 16.5161 15.7938 16.4337 16.001 16.4337C16.2082 16.4337 16.4069 16.5161 16.5533 16.6626L18.5809 18.6902L23.4464 13.8245C23.7515 13.5196 24.2462 13.5193 24.5514 13.8245L27.2031 16.4761C27.3495 16.6226 27.4319 16.8213 27.4319 17.0285C27.4319 17.2357 27.3495 17.4344 27.2031 17.5809L19.1333 25.6506C18.9807 25.8032 18.7808 25.8795 18.5809 25.8795V25.8795ZM14.454 19.8666L18.5809 23.9932L25.5457 17.0285L23.9987 15.4819L19.1333 20.3476C18.9868 20.4941 18.7881 20.5762 18.5809 20.5762C18.3737 20.5762 18.175 20.4941 18.0286 20.3476L16.001 18.32L14.454 19.8666Z" fill="url(#paint2_linear_3_16)"/>
<path d="M28.064 30.5548C27.8586 30.5548 27.6569 30.4718 27.5116 30.3259C27.3663 30.1807 27.2827 29.9789 27.2827 29.7736C27.2827 29.5682 27.3663 29.3665 27.5116 29.2212C27.6569 29.0759 27.8586 28.9923 28.064 28.9923C28.2693 28.9923 28.4711 29.0759 28.6163 29.2212C28.7616 29.3665 28.8452 29.5682 28.8452 29.7736C28.8452 29.9789 28.7616 30.1807 28.6163 30.3259C28.4711 30.4718 28.2693 30.5548 28.064 30.5548Z" fill="url(#paint3_linear_3_16)"/>
</g>
<defs>
<linearGradient id="paint0_linear_3_16" x1="20" y1="0" x2="20" y2="40" gradientUnits="userSpaceOnUse">
<stop stop-color="#039BEE"/>
<stop offset="1" stop-color="#1E1740"/>
</linearGradient>
<linearGradient id="paint1_linear_3_16" x1="19.9998" y1="4.58527" x2="19.9998" y2="35.5215" gradientUnits="userSpaceOnUse">
<stop stop-color="#039BEE"/>
<stop offset="1" stop-color="#1E1740"/>
</linearGradient>
<linearGradient id="paint2_linear_3_16" x1="20" y1="13.5957" x2="20" y2="25.8795" gradientUnits="userSpaceOnUse">
<stop stop-color="#039BEE"/>
<stop offset="1" stop-color="#1E1740"/>
</linearGradient>
<linearGradient id="paint3_linear_3_16" x1="28.064" y1="28.9923" x2="28.064" y2="30.5548" gradientUnits="userSpaceOnUse">
<stop stop-color="#039BEE"/>
<stop offset="1" stop-color="#1E1740"/>
</linearGradient>
<clipPath id="clip0_3_16">
<rect width="40" height="40" fill="white"/>
</clipPath>
</defs>
</svg>
