<svg width="60" height="60" viewBox="0 0 60 60" fill="none" xmlns="http://www.w3.org/2000/svg">
<g clip-path="url(#clip0_3_21)">
<path d="M29.895 7.62423C30.549 7.62423 31.0793 7.09584 31.0793 6.44403V1.1802C31.0793 0.528399 30.549 0 29.895 0C29.2409 0 28.7106 0.528399 28.7106 1.1802V6.44403C28.7108 7.09584 29.241 7.62423 29.895 7.62423Z" fill="white"/>
<path d="M58.8445 40.5453L56.7523 38.4662C56.008 37.7255 55.0161 37.3174 53.959 37.3174C53.2833 37.3174 52.6346 37.485 52.0596 37.799L48.117 33.8748L48.309 33.6837C49.9085 32.0866 49.9078 29.4915 48.3088 27.8999C47.7375 27.3294 47.0244 26.949 46.2472 26.789C46.3542 26.4209 46.4106 26.0354 46.4106 25.6407C46.4106 24.5445 45.9832 23.5164 45.2097 22.7487C44.6382 22.1783 43.9253 21.7979 43.1481 21.6378C43.2551 21.2697 43.3115 20.8844 43.3115 20.4896C43.3115 19.3932 42.8841 18.3654 42.1092 17.5965C41.524 17.0141 40.8047 16.6454 40.0494 16.4885C40.4534 15.1002 40.1082 13.5382 39.0121 12.4441C38.0998 11.5388 36.8619 11.1498 35.6688 11.2758L27.8562 9.80222C26.6648 9.57698 25.1767 9.42803 24.2374 10.2817C24.1782 10.3356 24.1177 10.3976 24.0582 10.4667C22.6018 9.93768 20.9033 10.2527 19.7372 11.4135C18.9635 12.1836 18.5373 13.2111 18.5373 14.3068C18.5373 14.7015 18.5934 15.0869 18.7002 15.4551C17.9238 15.615 17.2118 15.995 16.6422 16.5636C15.867 17.333 15.4396 18.3593 15.4387 19.4537C15.4384 19.8494 15.4947 20.2361 15.6022 20.6052C14.8255 20.7648 14.113 21.144 13.5417 21.7127C12.7665 22.4843 12.3396 23.5124 12.3396 24.6075C12.3396 25.4463 12.5909 26.2454 13.0566 26.9204C12.4686 27.1191 11.93 27.4497 11.479 27.8985C9.87847 29.4915 9.87789 32.0868 11.4801 33.6861L11.6714 33.876L7.72832 37.798C6.26292 37.1106 4.45745 37.3682 3.24818 38.5718L1.1547 40.6519C0.410065 41.3931 0.000117598 42.3818 0 43.4355C0 44.4896 0.410065 45.4782 1.1547 46.2195L3.76737 48.8199C4.23012 49.2806 4.98005 49.2801 5.44221 48.819C5.90448 48.3578 5.90402 47.6105 5.44127 47.15L2.8286 44.5495C2.532 44.2543 2.36866 43.8586 2.36866 43.4356C2.36866 43.0128 2.532 42.6172 2.82789 42.3228L4.92148 40.2423C5.44456 39.7217 6.24518 39.6441 6.85316 40.0064C6.89595 40.0704 6.94546 40.1313 7.00215 40.188C7.10364 40.2892 7.21947 40.3669 7.34248 40.4238L19.3485 52.3703C19.4055 52.4942 19.4838 52.6107 19.5859 52.7127C19.6854 52.812 19.7989 52.8888 19.9194 52.9452C20.1732 53.2312 20.3136 53.5967 20.3136 53.9865C20.3136 54.4095 20.1502 54.8051 19.8537 55.1003L17.7621 57.1819C17.1441 57.795 16.139 57.7949 15.5229 57.1838L12.9102 54.5801C12.4476 54.1191 11.6978 54.1191 11.2353 54.5801C10.7728 55.0409 10.7728 55.7881 11.2353 56.2489L13.8499 58.8546C14.6194 59.6184 15.6301 60 16.6411 60C17.6526 60 18.6644 59.6178 19.4349 58.8534L21.5277 56.7704C22.2723 56.0292 22.6824 55.0406 22.6824 53.9865C22.6824 53.2343 22.4724 52.5159 22.0821 51.8964L26.5198 47.4796C26.5245 47.4748 26.5291 47.47 26.5341 47.4651C27.0421 46.9417 28.4573 47.0397 29.8257 47.1343C30.798 47.2017 31.8821 47.2766 32.9412 47.1551L37.8008 51.992C37.4859 52.5639 37.3179 53.2097 37.3179 53.882C37.3179 54.935 37.728 55.923 38.4726 56.6642L40.5655 58.7472C41.3097 59.4879 42.3017 59.896 43.3586 59.896C44.4155 59.896 45.4074 59.488 46.1517 58.7472L58.8453 46.1132C59.5899 45.3722 60 44.3835 60 43.3294C59.9999 42.2757 59.5897 41.287 58.8445 40.5453ZM27.4152 12.1214L32.5527 13.0904L29.4777 16.1535C29.0019 15.9258 28.35 15.5009 27.6348 14.819C26.6557 13.8857 25.9554 12.8082 25.8917 12.1361C25.8917 12.1358 25.8917 12.1354 25.8917 12.1351C25.8917 12.1352 25.8917 12.135 25.8917 12.1351C25.887 12.0868 25.8856 12.0479 25.8862 12.0185C26.0412 11.981 26.4525 11.9394 27.4152 12.1214ZM21.4109 13.0836C22.0109 12.4863 22.943 12.4174 23.621 12.8749C24.0051 14.4801 25.3793 15.935 25.9974 16.5245C26.4557 16.9613 27.9256 18.2712 29.4096 18.6312C29.6103 18.9179 29.7195 19.2597 29.7195 19.6205C29.7195 20.0852 29.5402 20.5196 29.2134 20.8448C28.8874 21.1701 28.4509 21.3492 27.9838 21.3492C27.5166 21.3492 27.0799 21.1701 26.7525 20.8433L21.4107 15.5298C21.085 15.2058 20.9058 14.7713 20.9058 14.3068C20.9059 13.8421 21.0852 13.4077 21.4109 13.0836ZM18.3162 18.2337C18.642 17.9085 19.0782 17.7293 19.5445 17.7293C20.0115 17.7293 20.4492 17.9088 20.7771 18.2352L25.0779 22.5125C25.7551 23.1885 25.7551 24.2883 25.0803 24.962C24.7527 25.2872 24.3145 25.4663 23.8465 25.4663C23.3787 25.4663 22.9404 25.2872 22.6143 24.9633L19.3513 21.7127C19.3462 21.7076 19.3408 21.7029 19.3356 21.6977L18.3148 20.681C17.9874 20.355 17.8071 19.9197 17.8074 19.4555C17.8078 18.9927 17.9876 18.5597 18.3162 18.2337ZM15.2155 23.3826C15.5416 23.0582 15.9787 22.8794 16.4466 22.8794C16.9105 22.8794 17.3439 23.0556 17.6685 23.3744L20.9414 26.6343C21.2676 26.9582 21.4474 27.3921 21.4474 27.8562C21.4474 28.3202 21.2676 28.7541 20.94 29.0793C20.6141 29.4036 20.1774 29.5824 19.7104 29.5824C19.2427 29.5824 18.8046 29.4032 18.4782 29.0793L17.2917 27.8984C17.2915 27.8981 17.2911 27.8978 17.291 27.8975L15.2157 25.832C14.8885 25.5063 14.7084 25.0713 14.7084 24.6072C14.7084 24.1433 14.8885 23.7083 15.2155 23.3826ZM13.1529 29.5685C13.4804 29.2425 13.9181 29.063 14.3853 29.063C14.8524 29.063 15.29 29.2423 15.6174 29.5681L16.8055 30.7508C17.1319 31.0746 17.3116 31.5086 17.3116 31.9727C17.3116 32.4366 17.1318 32.8706 16.803 33.197C16.4772 33.5222 16.0406 33.7014 15.5735 33.7014C15.1062 33.7014 14.6696 33.5223 14.3413 33.1947L14.1926 33.047C14.1906 33.045 14.189 33.0429 14.1872 33.041C14.1849 33.0389 14.1826 33.0371 14.1803 33.035L13.1541 32.0162C12.4768 31.34 12.4762 30.242 13.1529 29.5685ZM37.288 42.9816C36.8257 42.5204 36.0759 42.5199 35.6132 42.9805L34.5595 44.0292C33.5583 45.027 31.744 44.9013 29.9896 44.7801C28.0845 44.6481 26.1143 44.5119 24.8394 45.8162L20.4771 50.1581L9.56838 39.3033L13.4289 35.4632C14.067 35.853 14.8033 36.0618 15.5736 36.0618C16.6743 36.0618 17.7063 35.6367 18.4771 34.8672C19.2531 34.097 19.6806 33.0692 19.6806 31.9727C19.6806 31.9626 19.68 31.9524 19.68 31.9422C19.6902 31.9424 19.7004 31.943 19.7106 31.943C20.8096 31.943 21.8409 31.5191 22.6128 30.7508C23.3889 29.9807 23.8164 28.9527 23.8164 27.8564C23.8164 27.8462 23.8157 27.8361 23.8157 27.8259C23.826 27.8259 23.8363 27.8267 23.8468 27.8267C24.9454 27.8267 25.9773 27.4032 26.7544 26.6321C27.5611 25.8269 27.9601 24.7668 27.9525 23.7089C27.9631 23.709 27.9737 23.7096 27.9843 23.7096C29.0849 23.7095 30.1169 23.2844 30.8888 22.5137C31.6625 21.7437 32.0886 20.7162 32.0886 19.6205C32.0886 18.8541 31.8795 18.1217 31.4898 17.487L34.8733 14.1166C35.1255 13.8664 35.4364 13.7094 35.7622 13.6446C35.7976 13.6408 35.8324 13.6352 35.8668 13.6284C36.3897 13.5566 36.9387 13.7173 37.3386 14.1141C38.0159 14.7902 38.0158 15.8901 37.341 16.5638L36.3105 17.5865C36.3072 17.5898 36.3034 17.5929 36.3001 17.5962L35.1132 18.777C34.6503 19.2377 34.6499 19.985 35.1122 20.4461C35.5745 20.9073 36.3243 20.9076 36.7869 20.4471L37.8216 19.4175C37.8217 19.4172 37.822 19.4171 37.8223 19.4168L37.9786 19.2615C38.6578 18.591 39.7581 18.5924 40.4366 19.2675C40.763 19.5914 40.9428 20.0253 40.9428 20.4894C40.9428 20.9534 40.7629 21.3873 40.4338 21.7137L39.3975 22.7487C39.3975 22.7484 39.3973 22.7487 39.3975 22.7487L38.2104 23.927C37.7469 24.3869 37.7454 25.1343 38.207 25.596C38.6685 26.0579 39.4183 26.0592 39.8817 25.5993L41.0741 24.4161C41.3999 24.0908 41.8365 23.9118 42.3036 23.9118C42.7709 23.9118 43.2075 24.0908 43.5359 24.4185C43.8623 24.7425 44.042 25.1765 44.042 25.6406C44.042 26.1045 43.8623 26.5385 43.5339 26.8641L41.4677 28.9239C41.0054 29.385 41.0055 30.1322 41.4679 30.593C41.6992 30.8234 42.0023 30.9384 42.3053 30.9384C42.6084 30.9384 42.9116 30.8231 43.1427 30.5927L44.1553 29.5832C44.1612 29.5776 44.1673 29.5728 44.1732 29.5671C44.499 29.2418 44.9356 29.0627 45.4027 29.0627C45.87 29.0627 46.3067 29.2418 46.6337 29.5683C47.3102 30.2418 47.3097 31.3398 46.6337 32.0145L45.604 33.0393C45.6037 33.0398 45.6033 33.04 45.603 33.0403C45.6026 33.0408 45.6022 33.0413 45.6018 33.0416L43.9677 34.668C43.505 35.1286 43.5045 35.876 43.9667 36.3372C44.198 36.5679 44.5014 36.6833 44.8047 36.6833C45.1076 36.6833 45.4104 36.5682 45.6415 36.3383L46.4409 35.5427L50.2719 39.3558L39.3641 50.2123L35.4558 46.3224C35.7283 46.1478 35.989 45.9425 36.2337 45.6986L37.2868 44.6505C37.7499 44.19 37.7503 43.4427 37.288 42.9816ZM57.1713 44.4432L44.4777 57.0771C44.1807 57.3727 43.7832 57.5355 43.3584 57.5355C42.9337 57.5355 42.5363 57.3727 42.2391 57.0771L40.1463 54.9941C39.8496 54.699 39.6864 54.3041 39.6864 53.882C39.6864 53.4602 39.8496 53.0652 40.1463 52.77L52.8399 40.136C53.1369 39.8403 53.5344 39.6776 53.9592 39.6776C54.384 39.6776 54.7815 39.8403 55.0793 40.1367L57.1714 42.2157C57.468 42.5109 57.6313 42.9063 57.6313 43.3294C57.6312 43.7526 57.4679 44.148 57.1713 44.4432Z" fill="white"/>
<path d="M14.1687 6.62926C14.3999 6.85918 14.7026 6.97404 15.0053 6.97404C15.3087 6.97404 15.6122 6.8585 15.8436 6.62751C16.3056 6.16614 16.3049 5.41896 15.842 4.95852L11.5263 0.666523C11.0634 0.206092 10.3135 0.206679 9.85143 0.668164C9.38939 1.12953 9.39009 1.87672 9.85308 2.33715L14.1687 6.62926Z" fill="white"/>
<path d="M44.7846 6.97409C45.0874 6.97409 45.3905 6.85901 45.6216 6.62897L49.9339 2.33685C50.3967 1.8763 50.3972 1.12899 49.9349 0.66786C49.4727 0.206726 48.7229 0.206258 48.26 0.666923L43.9478 4.95905C43.485 5.41959 43.4846 6.16689 43.9467 6.62802C44.178 6.85877 44.4813 6.97409 44.7846 6.97409Z" fill="white"/>
<path d="M7.28229 50.7662C6.82377 51.2309 6.83013 51.9783 7.29664 52.4352L7.30005 52.4384C7.53019 52.664 7.82901 52.7762 8.1277 52.7762C8.43429 52.7762 8.74086 52.658 8.97312 52.4225C9.43162 51.9578 9.42352 51.2088 8.95713 50.7519C8.49084 50.295 7.74103 50.3015 7.28229 50.7662Z" fill="white"/>
<path d="M32.6874 32.3612C32.8675 32.3612 33.0502 32.3204 33.2218 32.2342C33.8058 31.9406 34.0404 31.231 33.7459 30.649C33.4513 30.0671 32.7391 29.8331 32.1552 30.1267L32.1486 30.13C31.5646 30.4235 31.3333 31.1317 31.6278 31.7135C31.8357 32.1247 32.2539 32.3612 32.6874 32.3612Z" fill="white"/>
</g>
<defs>
<clipPath id="clip0_3_21">
<rect width="60" height="60" fill="white"/>
</clipPath>
</defs>
</svg>
