<svg width="40" height="40" viewBox="0 0 40 40" fill="none" xmlns="http://www.w3.org/2000/svg">
<path d="M19.93 5.08282C20.366 5.08282 20.7195 4.73056 20.7195 4.29602V0.786798C20.7195 0.352266 20.366 0 19.93 0C19.4939 0 19.1404 0.352266 19.1404 0.786798V4.29602C19.1405 4.73056 19.494 5.08282 19.93 5.08282Z" fill="url(#paint0_linear_3_59)"/>
<path d="M39.2297 27.0302L37.8349 25.6441C37.3387 25.1503 36.6774 24.8783 35.9727 24.8783C35.5222 24.8783 35.0897 24.99 34.7064 25.1993L32.078 22.5832L32.206 22.4558C33.2723 21.3911 33.2719 19.661 32.2059 18.5999C31.825 18.2196 31.3496 17.966 30.8315 17.8593C30.9028 17.6139 30.9404 17.3569 30.9404 17.0938C30.9404 16.363 30.6555 15.6776 30.1398 15.1658C29.7588 14.7855 29.2835 14.5319 28.7654 14.4252C28.8367 14.1798 28.8743 13.9229 28.8743 13.6597C28.8743 12.9288 28.5894 12.2436 28.0728 11.731C27.6827 11.3427 27.2031 11.0969 26.6996 10.9923C26.9689 10.0668 26.7388 9.02544 26.0081 8.29606C25.3999 7.69254 24.5746 7.43317 23.7792 7.51723L18.5708 6.53481C17.7765 6.38465 16.7845 6.28535 16.1583 6.85449C16.1188 6.89043 16.0785 6.93176 16.0388 6.97778C15.0679 6.62512 13.9355 6.83512 13.1581 7.60903C12.6423 8.12239 12.3582 8.80739 12.3582 9.53786C12.3582 9.80098 12.3956 10.0579 12.4668 10.3034C11.9492 10.41 11.4745 10.6633 11.0948 11.0424C10.578 11.5553 10.2931 12.2395 10.2925 12.9691C10.2923 13.2329 10.3298 13.4907 10.4015 13.7368C9.88366 13.8432 9.40864 14.096 9.02778 14.4751C8.51097 14.9895 8.22638 15.6749 8.22638 16.405C8.22638 16.9642 8.39392 17.4969 8.70438 17.9469C8.31239 18.0794 7.95332 18.2998 7.65266 18.599C6.58565 19.661 6.58526 21.3912 7.65337 22.4574L7.78092 22.584L5.15221 25.1987C4.17528 24.7404 2.97163 24.9121 2.16545 25.7145L0.769798 27.1013C0.273377 27.5954 7.83988e-05 28.2545 0 28.957C0 29.6597 0.273377 30.3188 0.769798 30.813L2.51158 32.5466C2.82008 32.8537 3.32003 32.8534 3.62814 32.546C3.93632 32.2385 3.93601 31.7403 3.62751 31.4333L1.88573 29.6997C1.688 29.5029 1.57911 29.2391 1.57911 28.9571C1.57911 28.6752 1.688 28.4115 1.88526 28.2152L3.28099 26.8282C3.62971 26.4811 4.16345 26.4294 4.56877 26.6709C4.5973 26.7136 4.63031 26.7542 4.6681 26.792C4.73576 26.8595 4.81298 26.9113 4.89499 26.9492L12.899 34.9135C12.937 34.9961 12.9892 35.0738 13.0573 35.1418C13.1236 35.208 13.1993 35.2592 13.2796 35.2968C13.4488 35.4875 13.5424 35.7311 13.5424 35.991C13.5424 36.273 13.4335 36.5367 13.2358 36.7335L11.8414 38.1213C11.4294 38.53 10.7593 38.5299 10.3486 38.1225L8.60678 36.3867C8.29843 36.0794 7.79856 36.0794 7.49022 36.3867C7.18188 36.6939 7.18188 37.1921 7.49022 37.4993L9.23326 39.2364C9.7463 39.7456 10.4201 40 11.0941 40C11.7684 40 12.4429 39.7452 12.9566 39.2356L14.3518 37.8469C14.8482 37.3528 15.1216 36.6937 15.1216 35.991C15.1216 35.4895 14.9816 35.0106 14.7214 34.5976L17.6799 31.6531C17.683 31.6499 17.6861 31.6467 17.6894 31.6434C18.0281 31.2945 18.9715 31.3598 19.8838 31.4229C20.532 31.4678 21.2547 31.5177 21.9608 31.4367L25.2005 34.6613C24.9906 35.0426 24.8786 35.4731 24.8786 35.9213C24.8786 36.6233 25.152 37.282 25.6484 37.7761L27.0437 39.1648C27.5398 39.6586 28.2011 39.9307 28.9057 39.9307C29.6103 39.9307 30.2716 39.6587 30.7678 39.1648L39.2302 30.7421C39.7266 30.2481 40 29.589 40 28.8863C39.9999 28.1838 39.7265 27.5247 39.2297 27.0302V27.0302ZM18.2768 8.0809L21.7018 8.72692L19.6518 10.769C19.3346 10.6172 18.9 10.3339 18.4232 9.87934C17.7705 9.25716 17.3036 8.53879 17.2611 8.09075C17.2611 8.09051 17.2611 8.09028 17.2611 8.09004C17.2611 8.08997 17.261 8.08989 17.261 8.08981C17.2579 8.05762 17.2571 8.03192 17.2575 8.01231C17.3608 7.98731 17.635 7.95958 18.2768 8.0809ZM14.2739 8.72239C14.6739 8.32419 15.2953 8.27825 15.7473 8.58325C16.0034 9.65341 16.9195 10.6233 17.3316 11.0163C17.6371 11.3075 18.6171 12.1808 19.6064 12.4208C19.7402 12.6119 19.813 12.8398 19.813 13.0803C19.813 13.3901 19.6935 13.6797 19.4756 13.8965C19.2583 14.1134 18.9673 14.2328 18.6559 14.2328C18.3444 14.2328 18.0533 14.1134 17.835 13.8955L17.8349 13.8954L17.8345 13.8951L14.2738 10.3532C14.0567 10.1372 13.9372 9.84755 13.9372 9.53786C13.9373 9.22809 14.0568 8.93848 14.2739 8.72239V8.72239ZM12.2108 12.1558C12.428 11.939 12.7188 11.8195 13.0297 11.8195C13.341 11.8195 13.6328 11.9392 13.8514 12.1568L16.7186 15.0083C17.1701 15.459 17.1701 16.1922 16.7202 16.6413C16.5018 16.8581 16.2097 16.9775 15.8977 16.9775C15.5858 16.9775 15.2936 16.8581 15.0762 16.6422L15.0761 16.6422L12.9009 14.4751C12.8975 14.4717 12.8939 14.4686 12.8904 14.4651L12.2099 13.7873C11.9916 13.57 11.8714 13.2798 11.8716 12.9703C11.8719 12.6618 11.9917 12.3731 12.2108 12.1558V12.1558ZM10.1437 15.5884C10.3611 15.3721 10.6525 15.2529 10.9644 15.2529C11.2737 15.2529 11.5626 15.3704 11.779 15.5829L13.9609 17.7562C14.1784 17.9721 14.2983 18.2614 14.2983 18.5708C14.2983 18.8801 14.1784 19.1694 13.96 19.3862C13.7427 19.6024 13.4516 19.7216 13.1403 19.7216C12.8285 19.7216 12.5364 19.6021 12.3188 19.3862L11.5278 18.5989C11.5277 18.5987 11.5274 18.5985 11.5273 18.5983L10.1438 17.2213C9.92568 17.0042 9.80557 16.7142 9.80557 16.4048C9.80557 16.0955 9.92568 15.8055 10.1437 15.5884V15.5884ZM8.76859 19.7123C8.98693 19.495 9.27873 19.3753 9.59021 19.3753C9.90161 19.3753 10.1933 19.4949 10.4116 19.7121L11.2037 20.5005C11.4213 20.7164 11.5411 21.0057 11.5411 21.3151C11.5411 21.6244 11.4212 21.9137 11.202 22.1313C10.9848 22.3481 10.6937 22.4676 10.3823 22.4676C10.0708 22.4676 9.7797 22.3482 9.56089 22.1298L9.46171 22.0313C9.46038 22.03 9.45936 22.0286 9.45811 22.0273C9.45662 22.0259 9.45505 22.0247 9.45356 22.0233L8.76937 21.3441C8.31788 20.8933 8.31748 20.1613 8.76859 19.7123ZM24.8587 28.6544C24.5505 28.3469 24.0506 28.3466 23.7421 28.6537L23.0397 29.3528C22.3722 30.018 21.1627 29.9342 19.9931 29.8534C18.723 29.7654 17.4095 29.6746 16.5596 30.5441L13.6514 33.4387L6.37892 26.2022L8.95259 23.6421C9.37798 23.902 9.86884 24.0412 10.3824 24.0412C11.1162 24.0412 11.8042 23.7578 12.3181 23.2448C12.8354 22.7313 13.1204 22.0461 13.1204 21.3151C13.1204 21.3084 13.12 21.3016 13.12 21.2948C13.1268 21.2949 13.1336 21.2953 13.1404 21.2953C13.8731 21.2953 14.5606 21.0127 15.0752 20.5005C15.5926 19.9871 15.8776 19.3018 15.8776 18.5709C15.8776 18.5641 15.8771 18.5574 15.8771 18.5506C15.884 18.5506 15.8909 18.5511 15.8979 18.5511C16.6303 18.5511 17.3182 18.2688 17.8363 17.7547C18.3741 17.2179 18.6401 16.5112 18.635 15.8059C18.6421 15.806 18.6491 15.8064 18.6562 15.8064C19.3899 15.8063 20.0779 15.5229 20.5925 15.0091C21.1083 14.4958 21.3924 13.8108 21.3924 13.0803C21.3924 12.5694 21.253 12.0811 20.9932 11.658L23.2489 9.41106C23.417 9.24427 23.6243 9.13958 23.8415 9.09637C23.8651 9.09387 23.8883 9.09012 23.9112 9.08559C24.2598 9.0377 24.6258 9.14489 24.8924 9.40942C25.3439 9.86013 25.3439 10.5934 24.894 11.0425L24.207 11.7243C24.2048 11.7265 24.2023 11.7286 24.2001 11.7308L23.4088 12.518C23.1002 12.8251 23.0999 13.3233 23.4081 13.6307C23.7163 13.9382 24.2162 13.9384 24.5246 13.6314L25.2144 12.945C25.2145 12.9448 25.2147 12.9447 25.2149 12.9445L25.3191 12.841C25.7719 12.394 26.5054 12.3949 26.9577 12.845C27.1753 13.0609 27.2952 13.3502 27.2952 13.6596C27.2952 13.9689 27.1753 14.2582 26.9559 14.4758L26.265 15.1658C26.2649 15.1658 26.2648 15.1659 26.2648 15.1661L25.4736 15.9513C25.1646 16.2579 25.1636 16.7562 25.4713 17.064C25.779 17.3719 26.2789 17.3728 26.5878 17.0662L27.3827 16.2774C27.5999 16.0605 27.891 15.9412 28.2024 15.9412C28.5139 15.9412 28.805 16.0605 29.0239 16.279C29.2415 16.495 29.3613 16.7843 29.3613 17.0937C29.3613 17.403 29.2415 17.6923 29.0226 17.9094L27.6451 19.2826C27.3369 19.59 27.337 20.0881 27.6453 20.3953C27.7995 20.5489 28.0015 20.6256 28.2035 20.6256C28.4056 20.6256 28.6077 20.5487 28.7618 20.3951L29.4369 19.7221C29.4408 19.7184 29.4449 19.7152 29.4488 19.7114C29.666 19.4945 29.9571 19.3751 30.2685 19.3751C30.58 19.3751 30.8711 19.4945 31.0891 19.7122C31.5401 20.1612 31.5398 20.8932 31.0891 21.343L30.4027 22.0262C30.4025 22.0265 30.4022 22.0267 30.402 22.0269C30.4017 22.0272 30.4015 22.0275 30.4012 22.0277L29.3118 23.112C29.0033 23.4191 29.003 23.9173 29.3111 24.2248C29.4653 24.3786 29.6676 24.4555 29.8698 24.4555C30.0717 24.4555 30.2736 24.3788 30.4277 24.2255L30.9606 23.6951L33.5146 26.2372L26.2427 33.4749L23.6372 30.8816C23.8189 30.7652 23.9927 30.6283 24.1558 30.4657L24.8579 29.767C25.1666 29.46 25.1669 28.9618 24.8587 28.6544V28.6544ZM38.1142 29.6288L29.6518 38.0514C29.4538 38.2485 29.1888 38.357 28.9056 38.357C28.6225 38.357 28.3575 38.2485 28.1594 38.0514L26.7642 36.6627C26.5664 36.466 26.4576 36.2027 26.4576 35.9213C26.4576 35.6401 26.5664 35.3768 26.7642 35.18L35.2266 26.7573C35.4246 26.5602 35.6896 26.4517 35.9728 26.4517C36.256 26.4517 36.521 26.5602 36.7195 26.7578L38.1143 28.1438C38.312 28.3406 38.4209 28.6042 38.4209 28.8863C38.4208 29.1684 38.3119 29.432 38.1142 29.6288V29.6288Z" fill="url(#paint1_linear_3_59)"/>
<path d="M9.4458 4.41951C9.59993 4.57279 9.80173 4.64936 10.0035 4.64936C10.2058 4.64936 10.4081 4.57233 10.5624 4.41834C10.8704 4.11076 10.8699 3.61264 10.5613 3.30568L7.68418 0.444349C7.3756 0.137395 6.87565 0.137786 6.56762 0.445443C6.25959 0.753021 6.26006 1.25115 6.56872 1.5581L9.4458 4.41951Z" fill="url(#paint2_linear_3_59)"/>
<path d="M29.8564 4.64939C30.0583 4.64939 30.2603 4.57267 30.4144 4.41931L33.2893 1.5579C33.5978 1.25087 33.5981 0.752662 33.2899 0.44524C32.9818 0.137817 32.4819 0.137505 32.1733 0.444615L29.2985 3.30603C28.99 3.61306 28.9897 4.11126 29.2978 4.41868C29.452 4.57251 29.6542 4.64939 29.8564 4.64939Z" fill="url(#paint3_linear_3_59)"/>
<path d="M4.85486 33.8441C4.54918 34.1539 4.55342 34.6522 4.86443 34.9568L4.8667 34.9589C5.02013 35.1093 5.21934 35.1841 5.41847 35.1841C5.62286 35.1841 5.82724 35.1053 5.98208 34.9483C6.28775 34.6385 6.28235 34.1392 5.97142 33.8346C5.66056 33.53 5.16069 33.5343 4.85486 33.8441V33.8441Z" fill="url(#paint4_linear_3_59)"/>
<path d="M26.7898 27.5209C26.9099 27.5209 27.0317 27.4937 27.1461 27.4362C27.5354 27.2405 27.6918 26.7674 27.4955 26.3794C27.2991 25.9915 26.8243 25.8355 26.435 26.0312L26.4306 26.0334C26.0413 26.2291 25.8871 26.7012 26.0834 27.0891C26.222 27.3632 26.5008 27.5209 26.7898 27.5209V27.5209Z" fill="url(#paint5_linear_3_59)"/>
<defs>
<linearGradient id="paint0_linear_3_59" x1="19.93" y1="0" x2="19.93" y2="5.08282" gradientUnits="userSpaceOnUse">
<stop stop-color="#039BEE"/>
<stop offset="1" stop-color="#1E1740"/>
</linearGradient>
<linearGradient id="paint1_linear_3_59" x1="20" y1="6.41827" x2="20" y2="40" gradientUnits="userSpaceOnUse">
<stop stop-color="#039BEE"/>
<stop offset="1" stop-color="#1E1740"/>
</linearGradient>
<linearGradient id="paint2_linear_3_59" x1="8.56499" y1="0.214417" x2="8.56499" y2="4.64936" gradientUnits="userSpaceOnUse">
<stop stop-color="#039BEE"/>
<stop offset="1" stop-color="#1E1740"/>
</linearGradient>
<linearGradient id="paint3_linear_3_59" x1="31.2939" y1="0.214478" x2="31.2939" y2="4.64939" gradientUnits="userSpaceOnUse">
<stop stop-color="#039BEE"/>
<stop offset="1" stop-color="#1E1740"/>
</linearGradient>
<linearGradient id="paint4_linear_3_59" x1="5.41819" y1="33.6089" x2="5.41819" y2="35.1841" gradientUnits="userSpaceOnUse">
<stop stop-color="#039BEE"/>
<stop offset="1" stop-color="#1E1740"/>
</linearGradient>
<linearGradient id="paint5_linear_3_59" x1="26.7892" y1="25.9468" x2="26.7892" y2="27.5209" gradientUnits="userSpaceOnUse">
<stop stop-color="#039BEE"/>
<stop offset="1" stop-color="#1E1740"/>
</linearGradient>
</defs>
</svg>
