<svg width="40" height="40" viewBox="0 0 40 40" fill="none" xmlns="http://www.w3.org/2000/svg">
<path d="M32.4617 34.8383L30.9682 30.357C30.4462 28.7925 29.1146 27.6376 27.4914 27.3421L23.1798 26.5576V26.2234C23.9301 25.7879 24.583 25.2054 25.103 24.5157H26.4056C27.4727 24.5157 28.3411 23.6473 28.3411 22.5802V14.8383C28.3411 10.2138 24.5785 6.45117 19.954 6.45117C15.3295 6.45117 11.5669 10.2138 11.5669 14.8383V19.3544C11.5669 20.5983 12.4514 21.6389 13.6243 21.8815C13.9862 23.7357 15.1449 25.3047 16.7282 26.2234V26.5576L12.4159 27.3421C10.7933 27.6376 9.46107 28.7925 8.93978 30.357L8.68171 31.1318L6.48429 28.9344C6.23268 28.6828 6.23268 28.2731 6.48429 28.0215L9.03268 25.4738L4.24946 20.6905L1.36946 23.5705C0.516552 24.4234 0.046875 25.5576 0.046875 26.7641C0.046875 27.9705 0.516552 29.1041 1.36946 29.957L10.0888 38.6763C10.9417 39.5292 12.0759 39.9996 13.2824 39.9996C14.4888 39.9996 15.6224 39.5292 16.4553 38.6957L19.5978 35.8163L18.6178 34.8383H32.4617ZM27.0507 22.5802C27.0507 22.9363 26.7611 23.2254 26.4056 23.2254H25.863C26.0501 22.7989 26.192 22.3492 26.2836 21.8815C26.5598 21.8241 26.814 21.7144 27.0507 21.5763V22.5802ZM26.4056 20.4654V18.2434C26.7895 18.4673 27.0507 18.8789 27.0507 19.3544C27.0507 19.8299 26.7895 20.2415 26.4056 20.4654ZM13.5024 20.4654C13.1185 20.2415 12.8572 19.8299 12.8572 19.3544C12.8572 18.8789 13.1185 18.4673 13.5024 18.2434V20.4654ZM13.5024 16.1286V16.8654C13.2727 16.9254 13.0572 17.0157 12.8572 17.1325V14.8383C12.8572 10.9254 16.0411 7.74149 19.954 7.74149C23.8669 7.74149 27.0507 10.9254 27.0507 14.8383V17.1325C26.8507 17.0157 26.6353 16.9247 26.4056 16.8654V16.1286H25.7604C23.8527 16.1286 22.0591 15.3854 20.7095 14.0363L19.954 13.2808L19.1985 14.0363C17.8488 15.3854 16.0553 16.1286 14.1475 16.1286H13.5024ZM14.7927 20.6447V17.3944C16.7301 17.2486 18.5366 16.4492 19.954 15.1015C21.3714 16.4492 23.1778 17.2492 25.1153 17.3944V20.6447C25.1153 21.5854 24.8585 22.4654 24.4172 23.2254H19.954V24.5157H23.3566C22.4469 25.3163 21.2578 25.806 19.954 25.806C17.1082 25.806 14.7927 23.4905 14.7927 20.6447ZM21.8895 26.7989V26.8292L19.954 28.7647L18.0185 26.8292V26.7989C18.6301 26.9912 19.2798 27.0963 19.954 27.0963C20.6282 27.0963 21.2778 26.9912 21.8895 26.7989ZM10.163 30.7647C10.5353 29.6473 11.4869 28.8221 12.6462 28.6105L17.1559 27.7912L19.954 30.5892L22.7514 27.7918L27.2604 28.6112C28.4198 28.8228 29.3714 29.6473 29.7436 30.7654L30.672 33.5479H17.3275L14.8146 31.035L12.0224 33.5608C11.7791 33.8054 11.354 33.8054 11.1101 33.5608L9.70107 32.1518L10.163 30.7647ZM4.24881 22.515L7.20752 25.4738L6.50687 26.1744L3.54816 23.2157L4.24881 22.515ZM15.5617 37.7654C14.9527 38.3731 14.1424 38.7092 13.2811 38.7092C12.4198 38.7092 11.6095 38.3731 10.9998 37.7641L2.28042 29.0454C1.67139 28.4363 1.33591 27.626 1.33591 26.7647C1.33591 25.9028 1.67139 25.0925 2.28042 24.4834L2.63526 24.1286L5.59397 27.0873L5.57075 27.1105C4.81655 27.8654 4.81655 29.0931 5.57075 29.8479L10.1972 34.4744C10.563 34.8396 11.0488 35.0415 11.5662 35.0415C12.0836 35.0415 12.5695 34.8402 12.9114 34.497L12.9598 34.4538L15.932 37.426L15.5617 37.7654ZM16.8843 36.5525L13.9185 33.5867L14.7707 32.8163L17.7314 35.777L16.8843 36.5525Z" fill="url(#paint0_linear_127_2534)"/>
<path d="M38.0185 0H28.9863C27.9192 0 27.0508 0.868387 27.0508 1.93548V7.09677C27.0508 8.16387 27.9192 9.03226 28.9863 9.03226H30.7095L30.0424 12.9232L36.2682 9.03226H38.0185C39.0856 9.03226 39.954 8.16387 39.954 7.09677V1.93548C39.954 0.868387 39.0856 0 38.0185 0ZM38.6637 7.09677C38.6637 7.45226 38.374 7.74194 38.0185 7.74194H35.8979L31.8005 10.3026L32.2398 7.74194H28.9863C28.6308 7.74194 28.3411 7.45226 28.3411 7.09677V1.93548C28.3411 1.58 28.6308 1.29032 28.9863 1.29032H38.0185C38.374 1.29032 38.6637 1.58 38.6637 1.93548V7.09677Z" fill="url(#paint1_linear_127_2534)"/>
<path d="M37.3728 2.58105H29.6309V3.87138H37.3728V2.58105Z" fill="url(#paint2_linear_127_2534)"/>
<path d="M34.7921 5.16113H29.6309V6.45146H34.7921V5.16113Z" fill="url(#paint3_linear_127_2534)"/>
<path d="M37.3733 5.16113H36.083V6.45146H37.3733V5.16113Z" fill="url(#paint4_linear_127_2534)"/>
<path d="M19.9536 1.93555C11.524 1.93555 4.26267 7.76651 2.37493 15.9001L1.15235 13.862L0.0458984 14.5259L2.31364 18.3046L6.09235 16.0368L5.42848 14.9304L3.68009 15.9794C5.50848 8.53877 12.1994 3.22587 19.9536 3.22587C21.6485 3.22587 23.3207 3.47748 24.924 3.97426L25.3059 2.742C23.5788 2.20651 21.7782 1.93555 19.9536 1.93555Z" fill="url(#paint5_linear_127_2534)"/>
<path d="M39.6399 14.2853L35.8612 12.0176L33.5941 15.7969L34.7005 16.4608L35.8296 14.5789C36.4237 16.3176 36.7276 18.1363 36.7276 20.0002C36.7276 23.8369 35.3986 27.5879 32.9863 30.5614L33.9883 31.3744C36.587 28.1718 38.0179 24.1318 38.0179 20.0002C38.0179 18.0266 37.6999 16.0995 37.0799 14.2544L38.976 15.3918L39.6399 14.2853Z" fill="url(#paint6_linear_127_2534)"/>
<defs>
<linearGradient id="paint0_linear_127_2534" x1="16.2543" y1="6.45117" x2="16.2543" y2="39.9996" gradientUnits="userSpaceOnUse">
<stop stop-color="#039BEE"/>
<stop offset="1" stop-color="#1E1740"/>
</linearGradient>
<linearGradient id="paint1_linear_127_2534" x1="33.5024" y1="0" x2="33.5024" y2="12.9232" gradientUnits="userSpaceOnUse">
<stop stop-color="#039BEE"/>
<stop offset="1" stop-color="#1E1740"/>
</linearGradient>
<linearGradient id="paint2_linear_127_2534" x1="33.5018" y1="2.58105" x2="33.5018" y2="3.87138" gradientUnits="userSpaceOnUse">
<stop stop-color="#039BEE"/>
<stop offset="1" stop-color="#1E1740"/>
</linearGradient>
<linearGradient id="paint3_linear_127_2534" x1="32.2115" y1="5.16113" x2="32.2115" y2="6.45146" gradientUnits="userSpaceOnUse">
<stop stop-color="#039BEE"/>
<stop offset="1" stop-color="#1E1740"/>
</linearGradient>
<linearGradient id="paint4_linear_127_2534" x1="36.7282" y1="5.16113" x2="36.7282" y2="6.45146" gradientUnits="userSpaceOnUse">
<stop stop-color="#039BEE"/>
<stop offset="1" stop-color="#1E1740"/>
</linearGradient>
<linearGradient id="paint5_linear_127_2534" x1="12.6759" y1="1.93555" x2="12.6759" y2="18.3046" gradientUnits="userSpaceOnUse">
<stop stop-color="#039BEE"/>
<stop offset="1" stop-color="#1E1740"/>
</linearGradient>
<linearGradient id="paint6_linear_127_2534" x1="36.3131" y1="12.0176" x2="36.3131" y2="31.3744" gradientUnits="userSpaceOnUse">
<stop stop-color="#039BEE"/>
<stop offset="1" stop-color="#1E1740"/>
</linearGradient>
</defs>
</svg>
