<svg width="40" height="40" viewBox="0 0 40 40" fill="none" xmlns="http://www.w3.org/2000/svg">
<path d="M34.5728 6.21277H39.2188C39.6503 6.21277 40 5.86304 40 5.43152V0.78125C40 0.349731 39.6503 0 39.2188 0H34.5728C34.1412 0 33.7915 0.349731 33.7915 0.78125V2.32513H23.1042V0.78125C23.1042 0.349731 22.7545 0 22.323 0H17.677C17.2455 0 16.8958 0.349731 16.8958 0.78125V2.32513H6.2085V0.78125C6.2085 0.349731 5.85876 0 5.42725 0H0.78125C0.349731 0 0 0.349731 0 0.78125V5.43152C0 5.86304 0.349731 6.21277 0.78125 6.21277H5.42725C5.85876 6.21277 6.2085 5.86304 6.2085 5.43152V3.88763H12.7075C10.419 4.92523 8.35571 6.44928 6.6745 8.37646C4.03839 11.3983 2.51434 15.2222 2.33826 19.2188H0.78125C0.349731 19.2188 0 19.5685 0 20V24.6503C0 25.0818 0.349731 25.4315 0.78125 25.4315H5.42725C5.85876 25.4315 6.2085 25.0818 6.2085 24.6503V20C6.2085 19.5685 5.85876 19.2188 5.42725 19.2188H3.90259C4.2627 11.8564 9.67865 5.58716 16.8958 4.17786V5.43182C16.8958 5.86334 17.2455 6.21307 17.677 6.21307H22.323C22.7545 6.21307 23.1042 5.86334 23.1042 5.43182V4.17786C30.3214 5.58716 35.7373 11.8564 36.0974 19.2188H34.5728C34.1412 19.2188 33.7915 19.5685 33.7915 20V24.6503C33.7915 25.0818 34.1412 25.4315 34.5728 25.4315H39.2188C39.6503 25.4315 40 25.0818 40 24.6503V20C40 19.5685 39.6503 19.2188 39.2188 19.2188H37.6617C37.4857 15.2222 35.9616 11.3983 33.3255 8.37646C31.6443 6.44928 29.581 4.92523 27.2925 3.88763H33.7915V5.43182C33.7915 5.86304 34.1412 6.21277 34.5728 6.21277ZM4.646 4.65027H1.5625V1.5625H4.646V4.65027ZM4.646 23.869H1.5625V20.7812H4.646V23.869ZM38.4375 23.869H35.354V20.7812H38.4375V23.869ZM21.5417 4.65027H18.4583V1.5625H21.5417V4.65027ZM35.354 1.5625H38.4375V4.65027H35.354V1.5625Z" fill="url(#paint0_linear_127_3088)"/>
<path d="M20.6842 8.60748C20.5468 8.35815 20.2847 8.20312 19.9999 8.20312C19.7152 8.20312 19.4531 8.35815 19.3157 8.60748L16.0708 14.4986C15.8627 14.8767 16.0003 15.3519 16.3784 15.5597C16.7559 15.7678 17.2314 15.6305 17.4395 15.2524L19.2187 12.0221V17.7835C18.1341 18.118 17.3437 19.1296 17.3437 20.3226C17.3437 21.7871 18.5354 22.9788 19.9999 22.9788C21.4645 22.9788 22.6562 21.7871 22.6562 20.3226C22.6562 19.1296 21.8658 18.118 20.7812 17.7835V12.0221L26.141 21.7535C24.3801 23.5345 23.1799 25.8191 22.7136 28.2812H17.2863C16.8197 25.8191 15.6195 23.5345 13.8589 21.7535L14.7543 20.1279C14.9624 19.7501 14.8248 19.2749 14.447 19.0668C14.0692 18.8586 13.5937 18.996 13.3856 19.3741L12.2015 21.5244C12.0275 21.8399 12.0922 22.2339 12.358 22.4774C14.0405 24.0182 15.2087 26.0593 15.6921 28.2812H14.9645C13.6721 28.2812 12.6208 29.3329 12.6208 30.625C12.6208 31.5369 13.1442 32.3279 13.9062 32.7151V39.2188C13.9062 39.6503 14.2559 40 14.6874 40C15.119 40 15.4687 39.6503 15.4687 39.2188V32.9688H24.5312V39.2188C24.5312 39.6503 24.8809 40 25.3124 40C25.744 40 26.0937 39.6503 26.0937 39.2188V32.7151C26.8557 32.3279 27.3791 31.5366 27.3791 30.625C27.3791 29.3326 26.3278 28.2812 25.0353 28.2812H24.3078C24.7912 26.059 25.9594 24.0182 27.6419 22.4771C27.9077 22.2336 27.9724 21.8399 27.7984 21.524L20.6842 8.60748ZM19.9999 21.4163C19.3969 21.4163 18.9062 20.9256 18.9062 20.3226C18.9062 19.7192 19.3969 19.2288 19.9999 19.2288C20.603 19.2288 21.0937 19.7192 21.0937 20.3226C21.0937 20.9256 20.603 21.4163 19.9999 21.4163ZM25.8166 30.625C25.8166 31.0559 25.4663 31.4062 25.0353 31.4062H14.9645C14.5336 31.4062 14.1833 31.0559 14.1833 30.625C14.1833 30.1941 14.5336 29.8438 14.9645 29.8438H25.0353C25.4663 29.8438 25.8166 30.1941 25.8166 30.625Z" fill="url(#paint1_linear_127_3088)"/>
<path d="M15.3613 18.1348C15.567 18.1348 15.7684 18.0518 15.9137 17.9065C16.059 17.7603 16.1426 17.5598 16.1426 17.3535C16.1426 17.1478 16.059 16.9473 15.9137 16.8011C15.7684 16.6559 15.567 16.5723 15.3613 16.5723C15.155 16.5723 14.9536 16.6559 14.8083 16.8011C14.6631 16.9473 14.5801 17.1478 14.5801 17.3535C14.5801 17.5598 14.6631 17.7603 14.8083 17.9065C14.9536 18.0518 15.155 18.1348 15.3613 18.1348Z" fill="url(#paint2_linear_127_3088)"/>
<defs>
<linearGradient id="paint0_linear_127_3088" x1="20" y1="0" x2="20" y2="25.4315" gradientUnits="userSpaceOnUse">
<stop stop-color="#039BEE"/>
<stop offset="1" stop-color="#1E1740"/>
</linearGradient>
<linearGradient id="paint1_linear_127_3088" x1="19.9999" y1="8.20312" x2="19.9999" y2="40" gradientUnits="userSpaceOnUse">
<stop stop-color="#039BEE"/>
<stop offset="1" stop-color="#1E1740"/>
</linearGradient>
<linearGradient id="paint2_linear_127_3088" x1="15.3613" y1="16.5723" x2="15.3613" y2="18.1348" gradientUnits="userSpaceOnUse">
<stop stop-color="#039BEE"/>
<stop offset="1" stop-color="#1E1740"/>
</linearGradient>
</defs>
</svg>
