<svg width="40" height="40" viewBox="0 0 40 40" fill="none" xmlns="http://www.w3.org/2000/svg">
<path d="M28.9713 9.14349C28.9713 8.84686 28.696 8.61523 28.479 8.61523C28.4283 8.61523 28.3777 8.62256 28.3417 8.65155L26.5036 9.8454C26.3373 9.95404 26.2793 10.1277 26.2793 10.2507C26.2793 10.3737 26.3373 10.5473 26.5036 10.6559L28.3417 11.8498C28.3777 11.8788 28.4283 11.8861 28.479 11.8861C28.696 11.8861 28.9713 11.6545 28.9713 11.3578C28.9713 11.2349 28.9206 11.1262 28.8409 11.0756L27.5671 10.2507L28.8409 9.42578C28.9203 9.37512 28.9713 9.26648 28.9713 9.14349Z" fill="url(#paint0_linear_127_3106)"/>
<path d="M32.6117 6.66895C32.4814 6.66895 32.3654 6.72662 32.3077 6.84991L29.7678 12.0669C29.7461 12.1102 29.7314 12.1609 29.7314 12.2045C29.7314 12.3852 29.8907 12.5878 30.137 12.5878C30.2744 12.5878 30.412 12.5155 30.4626 12.4072L33.0096 7.18988C33.0313 7.14655 33.0386 7.09589 33.0386 7.05225C33.0383 6.82092 32.814 6.66895 32.6117 6.66895V6.66895Z" fill="url(#paint1_linear_127_3106)"/>
<path d="M36.2652 9.8454L34.4274 8.65155C34.3911 8.62256 34.3405 8.61523 34.2898 8.61523C34.0728 8.61523 33.7979 8.84686 33.7979 9.14349C33.7979 9.26648 33.8485 9.37512 33.9282 9.42578L35.2017 10.2507L33.9282 11.0756C33.8485 11.1262 33.7979 11.2349 33.7979 11.3578C33.7979 11.6545 34.0728 11.8861 34.2898 11.8861C34.3405 11.8861 34.3911 11.8788 34.4274 11.8498L36.2652 10.6559C36.4318 10.5473 36.4895 10.3737 36.4895 10.2507C36.4895 10.1277 36.4318 9.95404 36.2652 9.8454Z" fill="url(#paint2_linear_127_3106)"/>
<path d="M37.1666 2.91321H24.5507C23.8988 1.21155 22.2481 0 20.3197 0H11.8578C9.36113 0 7.32958 2.03156 7.32958 4.5282V9.6701C6.82482 10.105 6.59014 10.7852 6.71435 11.47L7.04699 13.3005C7.16662 13.9291 7.50048 14.2523 7.75927 14.4125C8.04888 14.5917 8.37023 14.6509 8.66533 14.6524V14.9777C8.66533 16.6281 9.62816 18.447 11.3069 19.9683C11.6231 20.2545 11.9518 20.5185 12.2869 20.7571V21.7386C12.2869 22.0377 12.0735 22.2943 11.7793 22.3489C11.7656 22.3514 11.7522 22.3544 11.7388 22.3578C11.7287 22.3605 10.7228 22.6227 9.40783 22.9956H5.11126C4.62816 22.9956 4.16216 23.1985 3.83288 23.5519C3.50359 23.9053 3.33452 24.3848 3.36901 24.8666L3.38061 25.032C1.45891 25.9958 0.249807 27.7237 0.134451 29.6875C0.134145 29.6957 0.13384 29.704 0.133535 29.7122L0.000173179 37.7777C-0.00715104 38.3691 0.218069 38.9267 0.633413 39.3475C1.04937 39.7684 1.60387 40 2.19561 40H29.9822C30.5736 40 31.1284 39.7684 31.5441 39.3475C31.9597 38.9267 32.1849 38.3694 32.1776 37.7753L32.0442 29.7122C32.0439 29.704 32.0436 29.6957 32.043 29.6875C31.9246 27.6669 30.6484 25.8963 28.6287 24.9506C28.5918 24.9332 28.553 24.9155 28.5131 24.8975L28.5152 24.8666C28.5494 24.3848 28.3803 23.9056 28.0513 23.5519C27.722 23.1985 27.256 22.9956 26.7729 22.9956H22.7699C21.4553 22.6227 20.4491 22.3605 20.439 22.3581C20.4256 22.3544 20.4122 22.3514 20.3984 22.3489C20.1042 22.2943 19.8909 22.0377 19.8909 21.7386V20.7574C20.226 20.5185 20.5547 20.2545 20.8708 19.9683C21.9377 19.0015 22.7156 17.9144 23.1407 16.8268H26.9478L26.2828 19.5108C26.172 19.9585 26.3497 20.4108 26.7354 20.6631C26.9167 20.7819 27.1199 20.8408 27.3223 20.8408C27.5511 20.8408 27.7788 20.7657 27.9729 20.6165L32.9064 16.8268H37.1666C38.7105 16.8268 39.9663 15.571 39.9663 14.0271V5.71289C39.9663 4.16931 38.7105 2.91321 37.1666 2.91321ZM23.5137 10.6824C23.7377 10.6061 23.9498 10.5746 24.088 10.5621C24.272 10.7254 24.3587 10.9943 24.3105 11.2604L23.9797 13.0817C23.9314 13.3359 23.8338 13.3963 23.8017 13.4161C23.7337 13.4583 23.6333 13.4799 23.5131 13.4811L23.5137 10.6824ZM8.50146 4.5282C8.50146 2.67761 10.0072 1.17188 11.8578 1.17188H20.32C22.1706 1.17188 23.6763 2.67761 23.6763 4.5282V9.43756C23.3864 9.48883 23.0254 9.5871 22.6729 9.77509V6.20483C22.6729 4.92096 21.6283 3.87634 20.3444 3.87634H18.7609C18.2118 3.87634 17.6756 4.06769 17.2505 4.41498L17.0955 4.54193C16.8123 4.77356 16.4546 4.90112 16.0887 4.90112C15.7228 4.90112 15.3655 4.77356 15.0823 4.54224L14.9269 4.41498C14.5021 4.06769 13.9656 3.87634 13.4166 3.87634H11.8334C10.5495 3.87634 9.50487 4.92065 9.50487 6.20483V9.77478C9.1524 9.5871 8.79137 9.48853 8.50146 9.43756V4.5282ZM8.37603 13.4161C8.34398 13.3963 8.24633 13.3359 8.19903 13.0865L7.8673 11.2607C7.81908 10.9946 7.90575 10.726 8.08916 10.5624C8.22741 10.575 8.43981 10.6058 8.66411 10.6821L8.66472 13.4811C8.54479 13.4799 8.44439 13.4583 8.37603 13.4161ZM3.1917 38.4036C3.1917 38.5507 3.21184 38.6929 3.24907 38.8281H2.19561C1.91973 38.8281 1.66124 38.7201 1.46715 38.5239C1.27337 38.3276 1.16869 38.0676 1.17174 37.7945L1.3051 29.7443C1.39177 28.3374 2.1715 27.1176 3.47246 26.3199L4.1878 36.3568C4.20092 36.5411 4.24303 36.7172 4.30895 36.8811C3.66198 37.085 3.1917 37.6904 3.1917 38.4036ZM27.6961 36.3568L28.423 26.1581C29.8934 26.947 30.7799 28.2382 30.8727 29.7443L31.006 37.7921C31.0091 38.0676 30.9041 38.3276 30.7106 38.5239C30.5165 38.7201 30.258 38.8281 29.9822 38.8281H28.9287C28.9662 38.6929 28.9861 38.5507 28.9861 38.4036C28.9861 37.594 28.3803 36.9235 27.5981 36.8213C27.6509 36.6745 27.6848 36.5189 27.6961 36.3568V36.3568ZM27.8142 38.4036C27.8142 38.6377 27.6238 38.8281 27.39 38.8281H4.78777C4.55401 38.8281 4.36358 38.6377 4.36358 38.4036C4.36358 38.1699 4.55401 37.9794 4.78777 37.9794H27.39C27.6238 37.9794 27.8142 38.1699 27.8142 38.4036ZM27.1938 24.3506C27.3036 24.4687 27.358 24.6222 27.3464 24.7833L26.5273 36.2738C26.5059 36.5732 26.2541 36.8076 25.9538 36.8076H5.93004C5.63006 36.8076 5.37829 36.5732 5.35662 36.2735L4.53783 24.7833C4.52624 24.6222 4.58056 24.4687 4.69042 24.3506C4.80059 24.2325 4.94982 24.1675 5.11126 24.1675H26.7729C26.9341 24.1675 27.0836 24.2325 27.1938 24.3506V24.3506ZM19.2339 22.9956H12.9439C13.2643 22.6697 13.4587 22.2235 13.4587 21.7386V21.4764C14.3825 21.9547 15.3005 22.2229 16.0887 22.2229C16.877 22.2229 17.795 21.9547 18.719 21.4764V21.7386C18.719 22.2235 18.9134 22.6697 19.2339 22.9956ZM20.0838 19.0997C18.7755 20.285 17.2075 21.051 16.0887 21.051C14.9703 21.051 13.4023 20.285 12.094 19.0997C10.6597 17.8006 9.83721 16.2979 9.83721 14.9774L9.83599 11.286C9.84362 11.286 9.85125 11.2863 9.85888 11.2863C9.96477 11.2863 10.0716 11.2656 10.1738 11.2228C10.4793 11.0953 10.6767 10.799 10.6767 10.4681V6.20483C10.6767 5.56702 11.1955 5.04822 11.8334 5.04822H13.4169C13.6962 5.04822 13.969 5.14557 14.185 5.32227L14.3407 5.44952C14.8326 5.85144 15.4534 6.073 16.0887 6.073C16.7241 6.073 17.3451 5.85144 17.8371 5.44922L17.9924 5.32227C18.2085 5.14557 18.4816 5.04822 18.7609 5.04822H20.3441C20.9819 5.04822 21.501 5.56702 21.501 6.20483V10.4681C21.501 10.7993 21.6982 11.0953 22.004 11.2228C22.1132 11.2686 22.2283 11.2891 22.3415 11.286L22.3406 14.9777C22.3409 16.2979 21.5181 17.8006 20.0838 19.0997ZM38.7944 14.0271C38.7944 14.9246 38.0644 15.6549 37.1666 15.6549H32.7074C32.5783 15.6549 32.4529 15.6976 32.3506 15.7764L27.4904 19.5096L28.2652 16.3818C28.3086 16.207 28.2692 16.0217 28.1581 15.8798C28.047 15.7379 27.8768 15.6549 27.6967 15.6549H23.4606C23.495 15.4269 23.5127 15.2008 23.5127 14.9777V14.6524C23.8075 14.6509 24.1289 14.5917 24.4185 14.4125C24.6776 14.2523 25.0115 13.9291 25.1317 13.2959L25.4634 11.47C25.5879 10.7852 25.3527 10.1047 24.8482 9.6701V4.5282C24.8482 4.37897 24.8409 4.23096 24.8265 4.08508H37.1666C38.0644 4.08508 38.7944 4.81537 38.7944 5.71289V14.0271Z" fill="url(#paint3_linear_127_3106)"/>
<path d="M16.0885 33.1536C17.3031 33.1536 18.2913 32.1654 18.2913 30.9508C18.2913 29.7362 17.3031 28.748 16.0885 28.748C14.8739 28.748 13.8857 29.7362 13.8857 30.9508C13.8857 32.1654 14.8739 33.1536 16.0885 33.1536ZM16.0885 29.9199C16.657 29.9199 17.1194 30.3826 17.1194 30.9508C17.1194 31.5193 16.657 31.9817 16.0885 31.9817C15.5203 31.9817 15.0576 31.5193 15.0576 30.9508C15.0576 30.3826 15.5203 29.9199 16.0885 29.9199Z" fill="url(#paint4_linear_127_3106)"/>
<defs>
<linearGradient id="paint0_linear_127_3106" x1="27.6253" y1="8.61523" x2="27.6253" y2="11.8861" gradientUnits="userSpaceOnUse">
<stop stop-color="#039BEE"/>
<stop offset="1" stop-color="#1E1740"/>
</linearGradient>
<linearGradient id="paint1_linear_127_3106" x1="31.385" y1="6.66895" x2="31.385" y2="12.5878" gradientUnits="userSpaceOnUse">
<stop stop-color="#039BEE"/>
<stop offset="1" stop-color="#1E1740"/>
</linearGradient>
<linearGradient id="paint2_linear_127_3106" x1="35.1437" y1="8.61523" x2="35.1437" y2="11.8861" gradientUnits="userSpaceOnUse">
<stop stop-color="#039BEE"/>
<stop offset="1" stop-color="#1E1740"/>
</linearGradient>
<linearGradient id="paint3_linear_127_3106" x1="19.9832" y1="0" x2="19.9832" y2="40" gradientUnits="userSpaceOnUse">
<stop stop-color="#039BEE"/>
<stop offset="1" stop-color="#1E1740"/>
</linearGradient>
<linearGradient id="paint4_linear_127_3106" x1="16.0885" y1="28.748" x2="16.0885" y2="33.1536" gradientUnits="userSpaceOnUse">
<stop stop-color="#039BEE"/>
<stop offset="1" stop-color="#1E1740"/>
</linearGradient>
</defs>
</svg>
